<svg width="40" height="40" viewBox="0 0 40 40" fill="none" xmlns="http://www.w3.org/2000/svg">
<path d="M22.3831 11.9243C24.2952 11.9243 25.8452 10.3743 25.8452 8.46217C25.8452 6.55006 24.2952 5 22.3831 5C20.471 5 18.9209 6.55006 18.9209 8.46217C18.9209 10.3743 20.471 11.9243 22.3831 11.9243Z" fill="white"/>
<path d="M15.447 34.2427L19.0845 26.6139C19.0933 26.5955 19.0973 26.5752 19.0961 26.5548C19.0949 26.5344 19.0885 26.5146 19.0776 26.4974C19.0667 26.4801 19.0516 26.4659 19.0337 26.456C19.0158 26.4461 18.9957 26.441 18.9753 26.441H14.6103C14.5136 26.441 14.4182 26.4179 14.332 26.3738C14.2459 26.3296 14.1715 26.2657 14.115 26.1871C14.0585 26.1086 14.0214 26.0177 14.0069 25.922C13.9924 25.8263 14.0008 25.7286 14.0315 25.6368L18.2189 13.1312C18.2366 13.0786 18.266 13.0307 18.305 12.9912C18.344 12.9517 18.3915 12.9215 18.4438 12.9031C18.4962 12.8846 18.552 12.8784 18.6072 12.8847C18.6623 12.8911 18.7153 12.9099 18.762 12.9398C19.8459 13.6245 21.1019 13.9875 22.3839 13.9866C23.049 13.987 23.7105 13.8882 24.3464 13.6935C24.6791 13.5918 24.9558 13.9581 24.7616 14.2461L20.4021 20.7149C20.3899 20.7331 20.3827 20.7543 20.3816 20.7762C20.3804 20.7981 20.3852 20.82 20.3955 20.8393C20.4058 20.8587 20.4212 20.8749 20.44 20.8863C20.4588 20.8976 20.4804 20.9035 20.5023 20.9035H25.3893C25.5038 20.9034 25.6159 20.9355 25.713 20.9961C25.81 21.0567 25.8881 21.1434 25.9383 21.2462C25.9884 21.3491 26.0086 21.4639 25.9966 21.5777C25.9846 21.6915 25.9408 21.7996 25.8703 21.8897L15.9593 34.5601C15.7347 34.8454 15.2909 34.5699 15.447 34.2427Z" fill="white"/>
</svg>
