<svg viewBox="0 0 26 26" fill="none" xmlns="http://www.w3.org/2000/svg">
<g clip-path="url(#clip0_1926_107040)">
<path d="M20.8323 16.5317L18.0806 16.2175C17.4198 16.1417 16.7698 16.3692 16.304 16.835L14.3106 18.8284C11.2448 17.2684 8.73147 14.7659 7.17147 11.6892L9.17563 9.68503C9.64147 9.2192 9.86897 8.5692 9.79313 7.90836L9.47897 5.17836C9.34897 4.0842 8.42813 3.26086 7.32313 3.26086H5.44897C4.2248 3.26086 3.20647 4.2792 3.2823 5.50336C3.85647 14.755 11.2556 22.1434 20.4965 22.7175C21.7206 22.7934 22.739 21.775 22.739 20.5509V18.6767C22.7498 17.5825 21.9265 16.6617 20.8323 16.5317Z" fill="white"/>
</g>
<defs>
<clipPath id="clip0_1926_107040">
<rect width="26" height="26" fill="white"/>
</clipPath>
</defs>
</svg>
