<svg viewBox="0 0 28 28" fill="none" xmlns="http://www.w3.org/2000/svg">
<path d="M16.3742 24.5778C15.4564 24.8193 14.5114 24.9418 13.5625 24.9423C11.9046 24.9423 10.2731 22.4693 9.48781 18.8471C10.7827 18.3249 12.1663 18.0578 13.5625 18.0604C14.2114 18.1314 14.8904 17.9871 14.9313 17.2183C14.9389 16.4358 14.2117 16.2514 13.5624 16.3105C12.0685 16.3088 10.5861 16.5731 9.18486 17.0912C9.05174 16.0678 8.98539 15.0368 8.98624 14.0048C8.98507 12.9731 9.05023 11.9424 9.18133 10.9191C10.5844 11.4352 12.0675 11.6994 13.5625 11.6996C15.0568 11.6994 16.5395 11.4354 17.942 10.9196C18.0742 11.95 18.1399 12.9878 18.1387 14.0266C18.1449 14.2564 18.2412 14.4746 18.407 14.634C18.5727 14.7934 18.7945 14.8811 19.0245 14.8782C19.2544 14.8754 19.4739 14.7821 19.6357 14.6187C19.7974 14.4552 19.8883 14.2347 19.8887 14.0047C19.7768 8.17109 18.6701 11.6738 22.6237 7.88548C23.8488 9.69088 24.5025 11.823 24.5 14.0048C24.4996 14.6089 24.4494 15.2119 24.35 15.8078C24.3311 15.9211 24.3346 16.0371 24.3605 16.149C24.3864 16.261 24.4341 16.3667 24.5009 16.4602C24.5677 16.5538 24.6522 16.6332 24.7497 16.694C24.8472 16.7549 24.9557 16.7959 25.069 16.8148C26.469 16.961 26.1471 14.903 26.25 14.0048C26.1417 2.03296 11.2629 -3.17313 3.7237 6.0054C-0.0245722 10.4101 -0.0720453 17.5616 3.75368 22.0461C5.29968 23.927 7.35295 25.3247 9.66969 26.0733C11.9864 26.8218 14.4694 26.8899 16.8236 26.2693C17.0476 26.2094 17.2387 26.0631 17.3549 25.8625C17.4711 25.6618 17.503 25.4233 17.4434 25.1992C17.3839 24.9751 17.2378 24.7838 17.0373 24.6673C16.8369 24.5508 16.5983 24.5186 16.3742 24.5778ZM13.5625 9.94958C12.165 9.95046 10.7803 9.68354 9.48332 9.16326C10.301 5.42058 11.9962 3.06729 13.5625 3.06729C15.1277 3.06729 16.8217 5.4173 17.64 9.16385C16.3435 9.68373 14.9593 9.95045 13.5625 9.94958ZM21.5191 6.51166C20.8486 7.22612 20.085 7.84708 19.2489 8.35779C18.8859 6.713 18.2319 5.1463 17.3178 3.73155C18.915 4.31971 20.3533 5.27152 21.5191 6.51166ZM9.80712 3.73155C8.89302 5.1463 8.23904 6.713 7.87602 8.35779C7.03988 7.84708 6.27629 7.22612 5.60583 6.51166C6.77158 5.27152 8.20995 4.31971 9.80712 3.73155ZM4.50137 7.88542C5.38678 8.79509 6.40413 9.56624 7.51919 10.1729C7.14096 12.7135 7.14409 15.2963 7.52845 17.8359C6.41131 18.4428 5.39134 19.2136 4.50247 20.1226C3.2896 18.3126 2.64195 16.183 2.64175 14.0042C2.64156 11.8254 3.28882 9.69565 4.50137 7.88542ZM5.60428 21.4993C6.27698 20.7849 7.04236 20.1639 7.88 19.6528C8.23626 21.2953 8.88554 22.8602 9.79673 24.2724C8.20216 23.6876 6.76645 22.7379 5.60428 21.4993Z" fill="white"/>
<path d="M24.8479 20.6683L25.5917 19.9249C25.7501 19.7633 25.8646 19.5639 25.9242 19.3457C25.9839 19.1274 25.9867 18.8975 25.9325 18.6778C25.8782 18.4581 25.7687 18.256 25.6143 18.0906C25.4599 17.9252 25.2658 17.802 25.0503 17.7327L17.4599 15.3769C17.2308 15.309 16.9876 15.3042 16.7559 15.3631C16.5243 15.4219 16.3129 15.5422 16.1439 15.7112C15.9749 15.8802 15.8547 16.0917 15.7959 16.3234C15.7372 16.555 15.742 16.7982 15.8099 17.0273L18.1657 24.6171C18.2348 24.8325 18.3579 25.0267 18.5232 25.1812C18.6885 25.3356 18.8906 25.4452 19.1102 25.4995C19.3298 25.5539 19.5596 25.5511 19.7779 25.4916C19.9961 25.432 20.1955 25.3176 20.3571 25.1593L21.1013 24.4153L22.9919 26.306C23.2395 26.5528 23.5748 26.6914 23.9244 26.6914C24.2739 26.6914 24.6093 26.5528 24.8568 26.306L26.7393 24.4236C26.9858 24.1759 27.1241 23.8407 27.1241 23.4912C27.124 23.1418 26.9855 22.8066 26.7388 22.5591L24.8479 20.6683ZM23.9246 24.7637L21.72 22.5591C21.5553 22.3962 21.333 22.3049 21.1014 22.3048C20.8698 22.3048 20.6475 22.3961 20.4827 22.5589L19.6252 23.4164L17.7244 17.2914L23.8494 19.1922L22.9919 20.0497C22.829 20.2144 22.7376 20.4367 22.7376 20.6683C22.7376 20.9 22.829 21.1223 22.9919 21.287L25.1964 23.4916L23.9246 24.7637ZM13.5626 6.12976C13.3327 6.1331 13.1134 6.22675 12.952 6.39049C12.7907 6.55423 12.7002 6.77489 12.7002 7.00478C12.7002 7.23467 12.7907 7.45533 12.9521 7.61906C13.1134 7.78279 13.3328 7.87643 13.5626 7.87976C13.7925 7.87642 14.0118 7.78277 14.1732 7.61903C14.3346 7.4553 14.425 7.23463 14.425 7.00474C14.425 6.77485 14.3345 6.55419 14.1732 6.39046C14.0118 6.22673 13.7925 6.13309 13.5626 6.12976Z" fill="white"/>
</svg>
