<svg width="22" height="22" viewBox="0 0 22 22" fill="none" xmlns="http://www.w3.org/2000/svg">
<g clip-path="url(#clip0_2154_67862)">
<path d="M15.1039 7.6118C15.1039 11.749 11.749 15.1039 7.6118 15.1039C3.47206 15.1039 0.117188 11.749 0.117188 7.6118C0.117188 3.47206 3.47206 0.117188 7.6118 0.117188C11.749 0.117187 15.1039 3.47202 15.1039 7.6118Z" fill="white"/>
<path opacity="0.4" d="M1.22383 8.05636C0.979422 8.05636 0.78125 7.85819 0.78125 7.61378C0.78125 6.79557 0.925195 5.99476 1.20892 5.2334C1.2943 5.00442 1.54876 4.88793 1.77825 4.97331C2.00723 5.05869 2.12372 5.31358 2.03834 5.54264C1.79153 6.20471 1.66641 6.90157 1.66641 7.61374C1.66641 7.85819 1.46823 8.05636 1.22383 8.05636Z" fill="white"/>
<path opacity="0.08" d="M15.1022 7.61261C15.1022 11.7509 11.7473 15.1058 7.60903 15.1058C7.33463 15.1058 7.06242 15.0903 6.79688 15.0637C10.5545 14.6565 13.4779 11.4765 13.4779 7.61261C13.4779 3.74654 10.5545 0.566469 6.79688 0.159254C7.06242 0.132699 7.33463 0.117188 7.60903 0.117188C11.7473 0.11723 15.1022 3.47215 15.1022 7.61261Z" fill="black"/>
<path d="M5.91546 4.23279C6.05679 3.63428 5.68617 3.03453 5.08766 2.8932C4.48916 2.75188 3.88941 3.12249 3.74808 3.721C3.60676 4.3195 3.97737 4.91926 4.57588 5.06058C5.17438 5.20191 5.77413 4.83129 5.91546 4.23279Z" fill="white"/>
<path opacity="0.08" d="M5.94955 3.97677C5.94955 4.59118 5.45245 5.09027 4.83606 5.09027C4.71875 5.09027 4.6054 5.07235 4.5 5.03857C4.95134 4.89742 5.27748 4.47388 5.27748 3.97677C5.27748 3.47769 4.95139 3.05612 4.5 2.91497C4.60536 2.88116 4.71871 2.86328 4.83606 2.86328C5.45245 2.86324 5.94955 3.36034 5.94955 3.97677Z" fill="black"/>
<path d="M4.80926 9.82826C4.93664 9.28878 4.60258 8.74819 4.06311 8.6208C3.52364 8.49342 2.98304 8.82748 2.85565 9.36695C2.72827 9.90642 3.06233 10.447 3.6018 10.5744C4.14127 10.7018 4.68187 10.3677 4.80926 9.82826Z" fill="white"/>
<path opacity="0.08" d="M4.8378 9.59741C4.8378 10.1512 4.38972 10.6011 3.83414 10.6011C3.72839 10.6011 3.62621 10.5849 3.53125 10.5545C3.93808 10.4272 4.23203 10.0454 4.23203 9.59741C4.23203 9.14757 3.93808 8.7676 3.53125 8.64037C3.62625 8.60991 3.72839 8.59375 3.83414 8.59375C4.38977 8.59375 4.8378 9.04183 4.8378 9.59741Z" fill="black"/>
<path d="M7.31114 12.8501C7.44183 12.2966 7.09912 11.742 6.54567 11.6113C5.99223 11.4806 5.43763 11.8234 5.30694 12.3768C5.17625 12.9302 5.51897 13.4848 6.07241 13.6155C6.62586 13.7462 7.18046 13.4035 7.31114 12.8501Z" fill="white"/>
<path opacity="0.08" d="M7.3326 12.6117C7.3326 13.1799 6.87292 13.6414 6.30294 13.6414C6.19444 13.6414 6.08964 13.6249 5.99219 13.5936C6.40954 13.463 6.7111 13.0714 6.7111 12.6117C6.7111 12.1502 6.40954 11.7604 5.99219 11.6299C6.08964 11.5986 6.19444 11.582 6.30294 11.582C6.87292 11.5821 7.3326 12.0418 7.3326 12.6117Z" fill="black"/>
<path d="M10.9235 4.66038C11.0808 3.99427 10.6684 3.32677 10.0022 3.16949C9.33614 3.0122 8.66865 3.42468 8.51136 4.09078C8.35407 4.75689 8.76655 5.42438 9.43266 5.58167C10.0988 5.73896 10.7663 5.32648 10.9235 4.66038Z" fill="white"/>
<path opacity="0.08" d="M10.957 4.37598C10.957 5.05979 10.4037 5.61524 9.71775 5.61524C9.58717 5.61524 9.46105 5.5953 9.34375 5.55771C9.8461 5.40061 10.209 4.92925 10.209 4.37598C10.209 3.82052 9.8461 3.35135 9.34375 3.19425C9.46101 3.15666 9.58717 3.13672 9.71775 3.13672C10.4037 3.13672 10.957 3.68994 10.957 4.37598Z" fill="black"/>
<path d="M7.54343 8.21756C7.63253 7.84022 7.39887 7.46209 7.02153 7.37299C6.64419 7.28389 6.26606 7.51755 6.17696 7.89489C6.08786 8.27223 6.32152 8.65036 6.69886 8.73946C7.0762 8.82856 7.45432 8.5949 7.54343 8.21756Z" fill="white"/>
<path opacity="0.08" d="M7.56234 8.05367C7.56234 8.44104 7.24893 8.7557 6.86032 8.7557C6.78637 8.7557 6.71491 8.74439 6.64844 8.72308C6.93302 8.63409 7.13862 8.36704 7.13862 8.05363C7.13862 7.73897 6.93302 7.47321 6.64844 7.38418C6.71487 7.36286 6.78632 7.35156 6.86032 7.35156C7.24893 7.35165 7.56234 7.66506 7.56234 8.05367Z" fill="black"/>
<path d="M21.8851 14.3891C21.8851 18.5264 18.5303 21.8812 14.393 21.8812C10.2533 21.8812 6.89844 18.5263 6.89844 14.3891C6.89844 10.2494 10.2533 6.89453 14.393 6.89453C18.5303 6.89453 21.8851 10.2494 21.8851 14.3891Z" fill="white"/>
<path opacity="0.4" d="M7.99727 14.8298C7.75286 14.8298 7.55469 14.6316 7.55469 14.3872C7.55469 13.569 7.69863 12.7682 7.98236 12.0068C8.06773 11.7779 8.3222 11.6614 8.55169 11.7467C8.78067 11.8321 8.89716 12.087 8.81178 12.3161C8.56497 12.9781 8.43984 13.675 8.43984 14.3872C8.43984 14.6316 8.24167 14.8298 7.99727 14.8298Z" fill="white"/>
<path opacity="0.08" d="M21.8835 14.39C21.8835 18.5282 18.5286 21.8831 14.3903 21.8831C14.1159 21.8831 13.8437 21.8676 13.5781 21.8411C17.3358 21.4339 20.2591 18.2538 20.2591 14.39C20.2591 10.5239 17.3357 7.34381 13.5781 6.9366C13.8437 6.91004 14.1159 6.89453 14.3903 6.89453C18.5286 6.89457 21.8835 10.2495 21.8835 14.39Z" fill="black"/>
<path d="M12.6967 11.0101C12.838 10.4116 12.4674 9.81187 11.8689 9.67055C11.2704 9.52922 10.6707 9.89984 10.5293 10.4983C10.388 11.0968 10.7586 11.6966 11.3571 11.8379C11.9556 11.9793 12.5554 11.6086 12.6967 11.0101Z" fill="white"/>
<path opacity="0.08" d="M12.723 10.7541C12.723 11.3685 12.2259 11.8676 11.6095 11.8676C11.4922 11.8676 11.3788 11.8497 11.2734 11.8159C11.7248 11.6748 12.0509 11.2512 12.0509 10.7541C12.0509 10.255 11.7248 9.83347 11.2734 9.69232C11.3788 9.6585 11.4921 9.64063 11.6095 9.64063C12.2259 9.64058 12.723 10.1377 12.723 10.7541Z" fill="black"/>
<path d="M11.5905 16.6056C11.7179 16.0661 11.3838 15.5255 10.8444 15.3981C10.3049 15.2708 9.76429 15.6048 9.6369 16.1443C9.50952 16.6838 9.84358 17.2244 10.3831 17.3517C10.9225 17.4791 11.4631 17.1451 11.5905 16.6056Z" fill="white"/>
<path opacity="0.08" d="M11.6112 16.3709C11.6112 16.9246 11.1632 17.3745 10.6076 17.3745C10.5018 17.3745 10.3996 17.3584 10.3047 17.3279C10.7115 17.2007 11.0055 16.8189 11.0055 16.3709C11.0055 15.921 10.7115 15.541 10.3047 15.4138C10.3997 15.3833 10.5018 15.3672 10.6076 15.3672C11.1632 15.3672 11.6112 15.8153 11.6112 16.3709Z" fill="black"/>
<path d="M14.0924 19.6274C14.2231 19.074 13.8804 18.5194 13.3269 18.3887C12.7735 18.258 12.2189 18.6007 12.0882 19.1541C11.9575 19.7076 12.3002 20.2622 12.8537 20.3929C13.4071 20.5236 13.9617 20.1809 14.0924 19.6274Z" fill="white"/>
<path opacity="0.08" d="M14.1138 19.3891C14.1138 19.9572 13.6542 20.4187 13.0842 20.4187C12.9757 20.4187 12.8709 20.4022 12.7734 20.3709C13.1908 20.2404 13.4923 19.8487 13.4923 19.3891C13.4923 18.9276 13.1908 18.5378 12.7734 18.4072C12.8709 18.376 12.9757 18.3594 13.0842 18.3594C13.6542 18.3594 14.1138 18.8191 14.1138 19.3891Z" fill="black"/>
<path d="M18.2122 16.8849C18.3362 16.3598 18.011 15.8335 17.4859 15.7095C16.9607 15.5855 16.4345 15.9107 16.3105 16.4358C16.1865 16.961 16.5117 17.4872 17.0368 17.6113C17.562 17.7353 18.0882 17.4101 18.2122 16.8849Z" fill="white"/>
<path opacity="0.08" d="M18.2406 16.6568C18.2406 17.1958 17.8044 17.6338 17.2636 17.6338C17.1606 17.6338 17.0612 17.6181 16.9688 17.5884C17.3648 17.4645 17.6509 17.0929 17.6509 16.6568C17.6509 16.2188 17.3648 15.8489 16.9688 15.7251C17.0612 15.6954 17.1606 15.6797 17.2636 15.6797C17.8044 15.6797 18.2406 16.1159 18.2406 16.6568Z" fill="black"/>
<path d="M17.697 11.4377C17.8543 10.7716 17.4418 10.1041 16.7757 9.94683C16.1096 9.78954 15.4421 10.202 15.2848 10.8681C15.1275 11.5342 15.54 12.2017 16.2061 12.359C16.8722 12.5163 17.5397 12.1038 17.697 11.4377Z" fill="white"/>
<path opacity="0.08" d="M17.7304 11.1494C17.7304 11.8332 17.1772 12.3887 16.4912 12.3887C16.3606 12.3887 16.2345 12.3687 16.1172 12.3311C16.6195 12.1741 16.9825 11.7027 16.9825 11.1494C16.9825 10.594 16.6195 10.1248 16.1172 9.96769C16.2344 9.93009 16.3606 9.91016 16.4912 9.91016C17.1772 9.91016 17.7304 10.4634 17.7304 11.1494Z" fill="black"/>
<path d="M14.3169 14.9949C14.406 14.6176 14.1723 14.2394 13.795 14.1503C13.4176 14.0612 13.0395 14.2949 12.9504 14.6722C12.8613 15.0496 13.095 15.4277 13.4723 15.5168C13.8496 15.6059 14.2278 15.3722 14.3169 14.9949Z" fill="white"/>
<path opacity="0.08" d="M14.3358 14.831C14.3358 15.2184 14.0224 15.533 13.6338 15.533C13.5598 15.533 13.4883 15.5217 13.4219 15.5004C13.7065 15.4114 13.9121 15.1444 13.9121 14.831C13.9121 14.5163 13.7065 14.2506 13.4219 14.1615C13.4883 14.1402 13.5598 14.1289 13.6338 14.1289C14.0224 14.129 14.3358 14.4424 14.3358 14.831Z" fill="black"/>
<path d="M3.82679 8.47958C3.21152 8.47958 2.71094 8.98017 2.71094 9.59544C2.71094 10.2107 3.21152 10.7112 3.82679 10.7112C4.44206 10.7112 4.94261 10.2107 4.94261 9.59544C4.94261 8.98017 4.44206 8.47958 3.82679 8.47958ZM3.82679 10.4869C3.33519 10.4869 2.93532 10.087 2.93532 9.59548C2.93532 9.10387 3.33523 8.70401 3.82679 8.70401C4.31836 8.70401 4.71822 9.10392 4.71822 9.59548C4.71822 10.087 4.31831 10.4869 3.82679 10.4869ZM4.83041 5.20137C5.50631 5.20137 6.0561 4.65154 6.0561 3.97573C6.0561 3.29983 5.50627 2.75 4.83041 2.75C4.15456 2.75 3.60473 3.29987 3.60473 3.97573C3.60473 4.65154 4.15456 5.20137 4.83041 5.20137ZM4.83041 2.97443C5.38256 2.97443 5.83176 3.42362 5.83176 3.97577C5.83176 4.52792 5.38256 4.97703 4.83041 4.97703C4.27827 4.97703 3.82907 4.52787 3.82907 3.97577C3.82907 3.42366 4.27827 2.97443 4.83041 2.97443ZM9.70999 5.7252C10.4552 5.7252 11.0615 5.11895 11.0615 4.37379C11.0615 3.62854 10.4552 3.02229 9.70999 3.02229C8.96474 3.02229 8.35849 3.62854 8.35849 4.37379C8.35853 5.11895 8.96478 5.7252 9.70999 5.7252ZM9.70999 3.24668C10.3315 3.24668 10.8371 3.75229 10.8371 4.37379C10.8371 4.99529 10.3315 5.50082 9.70999 5.50082C9.08849 5.50082 8.58288 4.99525 8.58288 4.37379C8.58288 3.75233 9.08853 3.24668 9.70999 3.24668ZM6.85441 8.86875C7.30339 8.86875 7.66867 8.50347 7.66867 8.05453C7.66867 7.60555 7.30339 7.24028 6.85441 7.24028C6.40548 7.24028 6.0402 7.60555 6.0402 8.05453C6.04024 8.50347 6.40552 8.86875 6.85441 8.86875ZM6.85441 7.46466C7.17969 7.46466 7.44429 7.7293 7.44429 8.05453C7.44429 8.37977 7.17969 8.64437 6.85441 8.64437C6.52918 8.64437 6.26458 8.37977 6.26458 8.05453C6.26458 7.7293 6.52918 7.46466 6.85441 7.46466ZM10.604 15.2558C9.98868 15.2558 9.4881 15.7564 9.4881 16.3717C9.4881 16.9869 9.98868 17.4875 10.604 17.4875C11.2192 17.4875 11.7198 16.9869 11.7198 16.3717C11.7198 15.7564 11.2193 15.2558 10.604 15.2558ZM10.604 17.2631C10.1123 17.2631 9.71248 16.8632 9.71248 16.3717C9.71248 15.8801 10.1124 15.4802 10.604 15.4802C11.0955 15.4802 11.4954 15.8801 11.4954 16.3717C11.4954 16.8633 11.0955 17.2631 10.604 17.2631Z" fill="black"/>
<path d="M15.1772 6.82433C14.9868 4.97801 14.1302 3.27086 12.7557 2.009C11.3499 0.718473 9.52436 0.0078125 7.61539 0.0078125C3.42056 0.0078125 0.0078125 3.42005 0.0078125 7.61427C0.0078125 9.52397 0.718902 11.3498 2.01007 12.7554C3.27211 14.1292 4.97942 14.9855 6.82592 15.176C7.22037 19.0014 10.4631 21.9949 14.3922 21.9949C18.5852 21.9949 21.9965 18.5837 21.9965 14.3906C21.9965 10.4614 19.0027 7.21857 15.1772 6.82433ZM0.232195 7.61427C0.232195 3.5438 3.54431 0.232152 7.61539 0.232152C11.4139 0.232152 14.5429 3.04953 14.9493 6.80646C14.7651 6.79305 14.5798 6.78386 14.3922 6.78386C11.0682 6.78386 8.23723 8.92787 7.20465 11.905C6.99126 11.6365 6.66277 11.4702 6.31171 11.4702C5.68196 11.4702 5.1696 11.9826 5.1696 12.6123C5.1696 13.2421 5.68196 13.7544 6.31171 13.7544C6.493 13.7544 6.66612 13.7122 6.8233 13.6329C6.79851 13.8822 6.7854 14.1349 6.7854 14.3907C6.7854 14.5783 6.7946 14.7638 6.80805 14.9482C3.05021 14.5413 0.232195 11.4125 0.232195 7.61427ZM6.85866 13.348C6.69998 13.4667 6.51199 13.53 6.31171 13.53C5.80567 13.53 5.39399 13.1184 5.39399 12.6123C5.39399 12.1063 5.80567 11.6946 6.31171 11.6946C6.64717 11.6946 6.95771 11.8824 7.1157 12.1742C6.99986 12.5537 6.91405 12.946 6.85866 13.348ZM14.3922 21.7706C10.3215 21.7706 7.00978 18.4599 7.00978 14.3907C7.00978 10.32 10.3215 7.00828 14.3922 7.00828C18.4615 7.00828 21.7721 10.32 21.7721 14.3907C21.7721 18.4599 18.4615 21.7706 14.3922 21.7706Z" fill="black"/>
<path d="M11.6163 11.9788C12.2922 11.9788 12.842 11.4289 12.842 10.753C12.842 10.0772 12.2922 9.52734 11.6163 9.52734C10.9404 9.52734 10.3906 10.0772 10.3906 10.753C10.3906 11.4289 10.9405 11.9788 11.6163 11.9788ZM11.6163 9.75173C12.1685 9.75173 12.6177 10.2009 12.6177 10.7531C12.6177 11.3052 12.1685 11.7544 11.6163 11.7544C11.0642 11.7544 10.615 11.3052 10.615 10.7531C10.615 10.2009 11.0642 9.75173 11.6163 9.75173ZM13.0912 18.2453C12.4616 18.2453 11.9494 18.7575 11.9494 19.3872C11.9494 20.0167 12.4616 20.529 13.0912 20.529C13.7208 20.529 14.2331 20.0168 14.2331 19.3872C14.2331 18.7575 13.7208 18.2453 13.0912 18.2453ZM13.0912 20.3046C12.5853 20.3046 12.1737 19.8931 12.1737 19.3872C12.1737 18.8813 12.5853 18.4697 13.0912 18.4697C13.5971 18.4697 14.0087 18.8813 14.0087 19.3872C14.0087 19.8931 13.5971 20.3046 13.0912 20.3046ZM17.2682 15.5698C16.6676 15.5698 16.1789 16.0584 16.1789 16.659C16.1789 17.2597 16.6676 17.7483 17.2682 17.7483C17.8688 17.7483 18.3574 17.2597 18.3574 16.659C18.3574 16.0584 17.8688 15.5698 17.2682 15.5698ZM17.2682 17.5238C16.7913 17.5238 16.4033 17.1359 16.4033 16.659C16.4033 16.1821 16.7913 15.7941 17.2682 15.7941C17.7451 15.7941 18.133 16.1821 18.133 16.659C18.133 17.1359 17.7451 17.5238 17.2682 17.5238ZM17.8473 11.1511C17.8473 10.4058 17.2411 9.79959 16.4959 9.79959C15.7507 9.79959 15.1444 10.4058 15.1444 11.1511C15.1444 11.8963 15.7507 12.5026 16.4959 12.5026C17.2411 12.5026 17.8473 11.8963 17.8473 11.1511ZM15.3688 11.1511C15.3688 10.5296 15.8744 10.024 16.4959 10.024C17.1174 10.024 17.623 10.5296 17.623 11.1511C17.623 11.7726 17.1174 12.2782 16.4959 12.2782C15.8745 12.2782 15.3688 11.7725 15.3688 11.1511ZM13.6404 14.0177C13.1914 14.0177 12.8261 14.3829 12.8261 14.8319C12.8261 15.2809 13.1914 15.6461 13.6404 15.6461C14.0893 15.6461 14.4546 15.2809 14.4546 14.8319C14.4545 14.3829 14.0892 14.0177 13.6404 14.0177ZM13.6404 15.4218C13.3151 15.4218 13.0505 15.1571 13.0505 14.8319C13.0505 14.5066 13.3151 14.242 13.6404 14.242C13.9656 14.242 14.2302 14.5066 14.2302 14.8319C14.2302 15.1571 13.9656 15.4218 13.6404 15.4218Z" fill="black"/>
</g>
<defs>
<clipPath id="clip0_2154_67862">
<rect width="22" height="22" fill="white"/>
</clipPath>
</defs>
</svg>
