<svg width="214" height="180" viewBox="0 0 214 180" fill="none" xmlns="http://www.w3.org/2000/svg">
<path d="M200.093 45.21H68.1777V125.127H200.093V45.21Z" fill="#DFDBD8"/>
<path d="M197.872 28.085H14.0427C13.9299 28.085 13.8216 28.0401 13.7418 27.9603C13.662 27.8805 13.6172 27.7723 13.6172 27.6594C13.6172 27.5466 13.662 27.4383 13.7418 27.3585C13.8216 27.2787 13.9299 27.2339 14.0427 27.2339H197.872C197.985 27.2339 198.094 27.2787 198.173 27.3585C198.253 27.4383 198.298 27.5466 198.298 27.6594C198.298 27.7723 198.253 27.8805 198.173 27.9603C198.094 28.0401 197.985 28.085 197.872 28.085Z" fill="#A7A7A7"/>
<path d="M23.6203 22.1278C26.2055 22.1278 28.3012 20.0321 28.3012 17.447C28.3012 14.8618 26.2055 12.7661 23.6203 12.7661C21.0351 12.7661 18.9395 14.8618 18.9395 17.447C18.9395 20.0321 21.0351 22.1278 23.6203 22.1278Z" fill="#1A1A1A"/>
<path d="M39.7902 22.1278C42.3754 22.1278 44.4711 20.0321 44.4711 17.447C44.4711 14.8618 42.3754 12.7661 39.7902 12.7661C37.2051 12.7661 35.1094 14.8618 35.1094 17.447C35.1094 20.0321 37.2051 22.1278 39.7902 22.1278Z" fill="#1A1A1A"/>
<path d="M55.9601 22.1278C58.5453 22.1278 60.641 20.0321 60.641 17.447C60.641 14.8618 58.5453 12.7661 55.9601 12.7661C53.375 12.7661 51.2793 14.8618 51.2793 17.447C51.2793 20.0321 53.375 22.1278 55.9601 22.1278Z" fill="#1A1A1A"/>
<path d="M143.502 84.1939L135.472 75.9183C135.297 75.7417 135.088 75.6027 134.857 75.51C134.626 75.4173 134.378 75.3727 134.13 75.379H134.106C133.857 75.3727 133.61 75.4173 133.379 75.51C133.148 75.6027 132.939 75.7417 132.764 75.9183L124.734 84.1939C124.39 84.5149 124.189 84.959 124.173 85.4287C124.157 85.8984 124.329 86.3552 124.65 86.6985C124.677 86.7275 124.705 86.7555 124.734 86.7826C125.101 87.1263 125.585 87.3175 126.088 87.3175C126.591 87.3175 127.075 87.1263 127.442 86.7826L132.2 81.8089V94.6327C132.222 95.1265 132.434 95.5927 132.791 95.9342C133.148 96.2758 133.624 96.4665 134.118 96.4665C134.612 96.4665 135.087 96.2758 135.444 95.9342C135.802 95.5927 136.013 95.1265 136.035 94.6327V81.8089L140.793 86.7826C141.161 87.1263 141.645 87.3175 142.148 87.3175C142.651 87.3175 143.135 87.1263 143.502 86.7826C143.845 86.4617 144.047 86.0175 144.063 85.5478C144.079 85.0781 143.907 84.6213 143.586 84.2781C143.559 84.2491 143.531 84.221 143.502 84.1939Z" fill="white"/>
<path d="M134.136 104.886C130.409 104.886 126.765 103.781 123.666 101.71C120.567 99.6391 118.152 96.6959 116.726 93.2525C115.299 89.809 114.926 86.0199 115.653 82.3643C116.38 78.7087 118.175 75.3509 120.811 72.7154C123.446 70.0799 126.804 68.285 130.46 67.5579C134.115 66.8308 137.904 67.204 141.348 68.6303C144.791 70.0566 147.734 72.472 149.805 75.5711C151.876 78.6701 152.981 82.3136 152.981 86.0408C152.975 91.0371 150.988 95.8271 147.455 99.36C143.922 102.893 139.132 104.88 134.136 104.886ZM134.136 67.8938C130.547 67.8938 127.038 68.9581 124.054 70.9521C121.07 72.9461 118.744 75.7803 117.37 79.0962C115.997 82.4122 115.637 86.0609 116.338 89.5811C117.038 93.1013 118.766 96.3348 121.304 98.8727C123.842 101.411 127.076 103.139 130.596 103.839C134.116 104.539 137.765 104.18 141.081 102.806C144.396 101.433 147.231 99.107 149.225 96.1227C151.219 93.1385 152.283 89.6299 152.283 86.0408C152.278 81.2296 150.364 76.617 146.962 73.2149C143.56 69.8129 138.947 67.8992 134.136 67.8938Z" fill="white"/>
<path d="M144.62 167.813H21.4144C20.1551 167.809 19.1344 165.722 19.1328 163.144V100.611C19.1328 98.0336 20.1551 95.9467 21.4144 95.9424H144.62C145.879 95.9456 146.9 98.0331 146.902 100.611V163.144C146.9 165.721 145.878 167.809 144.62 167.813Z" fill="white"/>
<path d="M61.0374 131.475C66.9875 131.475 71.8111 126.652 71.8111 120.701C71.8111 114.751 66.9875 109.928 61.0374 109.928C55.0872 109.928 50.2637 114.751 50.2637 120.701C50.2637 126.652 55.0872 131.475 61.0374 131.475Z" fill="#1A1A1A"/>
<path d="M94.8228 153.901H41.9707C41.9046 153.902 41.8386 153.896 41.7734 153.885L66.771 110.588C66.9235 110.318 67.1449 110.094 67.4125 109.938C67.6802 109.782 67.9845 109.699 68.2944 109.699C68.6042 109.699 68.9085 109.782 69.1761 109.938C69.4438 110.094 69.6652 110.318 69.8176 110.588L86.5933 139.644L87.3975 141.034L94.8228 153.901Z" fill="url(#paint0_linear_6506_3324)"/>
<path d="M124.25 153.901H78.5371L87.3948 141.035L88.0322 140.109L99.5752 123.341C99.7794 123.084 100.035 122.874 100.326 122.722C100.617 122.571 100.937 122.483 101.264 122.464C101.591 122.444 101.919 122.494 102.226 122.609C102.532 122.725 102.812 122.903 103.045 123.134C103.104 123.199 103.16 123.268 103.211 123.341L124.25 153.901Z" fill="url(#paint1_linear_6506_3324)"/>
<path d="M144.62 167.813H21.4144C20.1551 167.809 19.1344 165.722 19.1328 163.144V100.611C19.1328 98.0336 20.1551 95.9467 21.4144 95.9424H144.62C145.879 95.9456 146.9 98.0331 146.902 100.611V163.144C146.9 165.721 145.878 167.809 144.62 167.813ZM21.4144 97.8096C20.6585 97.8096 20.0463 99.0645 20.0452 100.611V163.144C20.0452 164.69 20.6585 165.943 21.4144 165.945H144.62C145.376 165.945 145.988 164.69 145.989 163.144V100.611C145.989 99.0646 145.376 97.8112 144.62 97.8096L21.4144 97.8096Z" fill="#DFDBD8"/>
<defs>
<linearGradient id="paint0_linear_6506_3324" x1="94.8228" y1="109.699" x2="36.0532" y2="119.46" gradientUnits="userSpaceOnUse">
<stop stop-color="#FB6609"/>
<stop offset="1" stop-color="#E40849"/>
</linearGradient>
<linearGradient id="paint1_linear_6506_3324" x1="124.25" y1="122.459" x2="74.2356" y2="132.522" gradientUnits="userSpaceOnUse">
<stop stop-color="#FB6609"/>
<stop offset="1" stop-color="#E40849"/>
</linearGradient>
</defs>
</svg>
