<svg width="274" height="275" viewBox="0 0 274 275" fill="none" xmlns="http://www.w3.org/2000/svg">
<g opacity="0.8">
<path fill-rule="evenodd" clip-rule="evenodd" d="M159.837 172.609L159.838 172.609L159.837 172.59L159.837 172.609ZM159.837 172.559C159.835 171.821 160.524 171.577 161.387 172.01C160.517 171.557 159.805 170.589 159.794 169.839L159.794 169.827L159.791 169.826C159.791 169.829 159.791 169.833 159.791 169.837C159.803 170.591 159.1 170.839 158.222 170.391C158.218 170.388 158.213 170.386 158.209 170.384L158.209 170.387L158.227 170.396C159.099 170.841 159.815 171.806 159.837 172.559Z" fill="white"/>
<path fill-rule="evenodd" clip-rule="evenodd" d="M135.809 158.524L135.809 158.524L135.81 158.523L135.809 158.524ZM135.841 158.493C136.174 158.189 136.893 158.395 137.467 158.962L137.467 158.962C136.891 158.378 136.688 157.646 137.014 157.32L137.018 157.317L137.017 157.316C137.015 157.318 137.014 157.319 137.012 157.321C136.692 157.641 135.978 157.449 135.399 156.895C135.946 157.464 136.141 158.165 135.841 158.493Z" fill="white"/>
<path fill-rule="evenodd" clip-rule="evenodd" d="M104.138 116.837L104.138 116.837L104.14 116.835L104.138 116.837ZM104.17 116.805C104.503 116.5 105.224 116.708 105.798 117.276L105.799 117.276C105.221 116.692 105.017 115.958 105.343 115.632L105.346 115.629L105.346 115.628C105.344 115.63 105.343 115.631 105.341 115.633C105.021 115.953 104.305 115.761 103.727 115.204C104.275 115.774 104.47 116.477 104.17 116.805Z" fill="white"/>
<path fill-rule="evenodd" clip-rule="evenodd" d="M207.412 235.897L207.413 235.897L207.414 235.896L207.412 235.897ZM207.445 235.865C207.778 235.561 208.498 235.768 209.073 236.337L209.073 236.336C208.496 235.753 208.291 235.019 208.617 234.693L208.621 234.689L208.62 234.689C208.619 234.69 208.617 234.692 208.616 234.693C208.295 235.014 207.58 234.821 207.001 234.265C207.549 234.835 207.745 235.538 207.445 235.865Z" fill="white"/>
<path fill-rule="evenodd" clip-rule="evenodd" d="M108.516 103.329L108.517 103.329L108.517 103.328L108.516 103.329ZM108.548 103.298C108.881 102.993 109.602 103.2 110.176 103.77L110.177 103.769C109.599 103.185 109.394 102.451 109.721 102.125L109.725 102.121L109.724 102.12C109.722 102.122 109.721 102.123 109.719 102.125C109.398 102.446 108.681 102.253 108.102 101.695C108.652 102.265 108.848 102.969 108.548 103.298Z" fill="white"/>
<path fill-rule="evenodd" clip-rule="evenodd" d="M211.791 222.391L211.791 222.391L211.792 222.39L211.791 222.391ZM211.822 222.36C212.156 222.056 212.876 222.263 213.451 222.832L213.451 222.831C212.874 222.248 212.669 221.514 212.995 221.188L213 221.183L212.999 221.183C212.997 221.184 212.995 221.186 212.994 221.188C212.673 221.509 211.956 221.315 211.377 220.757C211.927 221.328 212.123 222.032 211.822 222.36Z" fill="white"/>
<path fill-rule="evenodd" clip-rule="evenodd" d="M103.155 88.1703L103.155 88.1703L103.155 88.17L103.155 88.1703ZM103.187 88.1379C103.522 87.8342 104.243 88.0425 104.817 88.6128L104.818 88.6121C104.238 88.0281 104.033 87.2928 104.359 86.9663L104.363 86.9624L104.363 86.9617C104.361 86.9633 104.36 86.9648 104.358 86.9664C104.037 87.2876 103.32 87.0941 102.741 86.5361C103.29 87.106 103.487 87.8092 103.187 88.1379Z" fill="white"/>
<path fill-rule="evenodd" clip-rule="evenodd" d="M206.43 207.233L206.43 207.233L206.43 207.232L206.43 207.233ZM206.462 207.2C206.797 206.897 207.517 207.105 208.092 207.675L208.092 207.675C207.513 207.091 207.308 206.355 207.634 206.029L207.638 206.025L207.637 206.024C207.636 206.026 207.634 206.027 207.633 206.029C207.311 206.35 206.595 206.157 206.016 205.599C206.565 206.168 206.761 206.872 206.462 207.2Z" fill="white"/>
<path fill-rule="evenodd" clip-rule="evenodd" d="M94.7281 90.614L94.7282 90.6141L94.7283 90.6115L94.7281 90.614ZM94.7314 90.5707C94.7789 90.1284 95.2506 90.0218 95.8006 90.3305L95.8006 90.3298C95.2429 90.0015 94.8215 89.3692 94.8566 88.9096L94.857 88.9039L94.8549 88.9027C94.8548 88.9049 94.8546 88.9071 94.8545 88.9094C94.8195 89.3663 94.3462 89.482 93.7914 89.1742C94.3383 89.4985 94.7527 90.1145 94.7314 90.5707Z" fill="white"/>
<path fill-rule="evenodd" clip-rule="evenodd" d="M198.003 209.677L198.003 209.677L198.003 209.674L198.003 209.677ZM198.006 209.633C198.054 209.191 198.525 209.084 199.075 209.393L199.075 209.392C198.518 209.064 198.096 208.432 198.131 207.972L198.132 207.966L198.13 207.965C198.129 207.967 198.129 207.97 198.129 207.972C198.094 208.429 197.621 208.545 197.066 208.237C197.613 208.561 198.027 209.177 198.006 209.633Z" fill="white"/>
<path fill-rule="evenodd" clip-rule="evenodd" d="M113.707 94.4558L113.709 94.4574C113.71 94.4505 113.71 94.4437 113.711 94.437C113.746 93.9748 114.23 93.8618 114.793 94.1827L114.793 94.1808C114.238 93.8594 113.815 93.2361 113.836 92.7754C113.788 93.2221 113.307 93.3262 112.75 93.0055C112.748 93.0044 112.746 93.0033 112.744 93.0023L112.744 93.0034L112.749 93.0059C113.314 93.3314 113.744 93.9714 113.709 94.4354C113.708 94.4423 113.707 94.4491 113.707 94.4558Z" fill="white"/>
<path fill-rule="evenodd" clip-rule="evenodd" d="M216.981 213.516L216.984 213.518C216.984 213.511 216.985 213.504 216.985 213.498C217.021 213.035 217.504 212.922 218.067 213.243L218.067 213.241C217.513 212.92 217.09 212.297 217.111 211.836C217.063 212.283 216.582 212.387 216.024 212.066C216.023 212.065 216.021 212.064 216.019 212.063L216.019 212.064L216.023 212.066C216.589 212.392 217.019 213.032 216.983 213.496C216.983 213.503 216.982 213.51 216.981 213.516Z" fill="white"/>
<path fill-rule="evenodd" clip-rule="evenodd" d="M157.372 184.97L157.375 184.972C157.375 184.965 157.375 184.958 157.376 184.95C157.411 184.49 157.892 184.376 158.453 184.694L158.453 184.692C157.892 184.365 157.467 183.729 157.503 183.268L157.503 183.261L157.501 183.26C157.501 183.263 157.501 183.266 157.501 183.269C157.466 183.724 156.997 183.84 156.446 183.539C156.996 183.87 157.408 184.494 157.374 184.949C157.373 184.956 157.372 184.963 157.372 184.97Z" fill="white"/>
<path fill-rule="evenodd" clip-rule="evenodd" d="M121.476 148.653L121.476 148.653L121.476 148.651L121.476 148.653ZM121.479 148.609C121.527 148.165 122.004 148.059 122.559 148.376L122.559 148.376C122.003 148.053 121.58 147.429 121.603 146.968C121.555 147.415 121.074 147.52 120.516 147.199C120.514 147.198 120.512 147.197 120.511 147.196L120.51 147.197L120.518 147.201C121.075 147.522 121.5 148.147 121.479 148.609Z" fill="white"/>
<path fill-rule="evenodd" clip-rule="evenodd" d="M173.45 190.183L173.452 190.184C173.453 190.178 173.453 190.171 173.454 190.164C173.489 189.702 173.972 189.589 174.535 189.91L174.535 189.909C173.98 189.587 173.557 188.963 173.579 188.502C173.532 188.949 173.05 189.054 172.493 188.733C172.491 188.732 172.489 188.731 172.486 188.729L172.486 188.73L172.491 188.733C173.057 189.058 173.487 189.698 173.451 190.162C173.451 190.169 173.45 190.176 173.45 190.183Z" fill="white"/>
<path fill-rule="evenodd" clip-rule="evenodd" d="M117.38 114.736L117.382 114.738C117.383 114.731 117.383 114.724 117.384 114.718C117.419 114.257 117.9 114.143 118.46 114.461L118.461 114.46C117.907 114.137 117.487 113.515 117.509 113.055C117.462 113.503 116.98 113.607 116.423 113.286C116.419 113.284 116.416 113.282 116.412 113.28L116.412 113.281L116.421 113.286C116.987 113.612 117.417 114.252 117.382 114.716C117.381 114.723 117.38 114.729 117.38 114.736Z" fill="white"/>
<path fill-rule="evenodd" clip-rule="evenodd" d="M220.654 233.797L220.657 233.798C220.657 233.791 220.658 233.785 220.658 233.778C220.693 233.317 221.174 233.204 221.735 233.521L221.735 233.521C221.182 233.198 220.761 232.575 220.784 232.116C220.737 232.563 220.255 232.668 219.697 232.347C219.694 232.345 219.69 232.343 219.687 232.341L219.687 232.342L219.696 232.347C220.262 232.673 220.692 233.313 220.656 233.777C220.656 233.783 220.655 233.79 220.654 233.797Z" fill="white"/>
<path fill-rule="evenodd" clip-rule="evenodd" d="M114.273 134.202L114.276 134.203C114.276 134.196 114.277 134.19 114.277 134.183C114.312 133.722 114.792 133.608 115.353 133.925L115.353 133.925C114.793 133.597 114.369 132.963 114.404 132.502L114.405 132.493L114.403 132.492C114.402 132.495 114.402 132.498 114.402 132.501C114.367 132.956 113.899 133.073 113.348 132.771C113.897 133.102 114.31 133.726 114.275 134.181C114.274 134.188 114.274 134.195 114.273 134.202Z" fill="white"/>
<path d="M223.563 255.797C231.884 247.044 233.568 217.816 173.734 170.921C98.9405 112.303 99.4531 92.2324 103.967 70.5391C108.481 48.8459 99.8935 30.7269 68.5774 1.10094" stroke="url(#paint0_linear_2374_39108)" stroke-width="0.6"/>
<path d="M220.564 258.812C228.886 250.06 230.569 220.832 170.735 173.937C95.9418 115.319 96.4543 95.248 100.968 73.5548C105.483 51.8615 96.8948 33.7425 65.5786 4.11656" stroke="url(#paint1_linear_2374_39108)" stroke-width="0.6"/>
<path d="M217.852 261.531C226.173 252.779 227.857 223.55 168.023 176.656C93.2296 118.037 93.7421 97.9667 98.2563 76.2735C102.77 54.5803 94.1826 36.4613 62.8664 6.83531" stroke="url(#paint2_linear_2374_39108)" stroke-width="0.6"/>
<path d="M215.334 264.059C223.655 255.306 225.339 226.078 165.505 179.183C90.7115 120.565 91.224 100.494 95.7382 78.8008C100.252 57.1076 91.6645 38.9886 60.3483 9.36265" stroke="url(#paint3_linear_2374_39108)" stroke-width="0.6"/>
<path d="M212.625 266.779C220.946 258.027 222.629 228.798 162.795 181.904C88.0018 123.285 88.5143 103.215 93.0285 81.5215C97.5427 59.8283 88.9548 41.7093 57.6386 12.0834" stroke="url(#paint4_linear_2374_39108)" stroke-width="0.6"/>
<path d="M210.107 269.307C218.428 260.554 220.111 231.326 160.277 184.431C85.484 125.813 85.9965 105.742 90.5107 84.0489C95.0249 62.3557 86.437 44.2367 55.1208 14.6107" stroke="url(#paint5_linear_2374_39108)" stroke-width="0.6"/>
<path d="M207.397 272.029C215.718 263.277 217.402 234.048 157.567 187.154C82.7743 128.535 83.2868 108.465 87.801 86.7715C92.3152 65.0783 83.7273 46.9593 52.4111 17.3334" stroke="url(#paint6_linear_2374_39108)" stroke-width="0.6"/>
<path d="M204.879 274.557C213.199 265.803 214.881 236.571 155.051 189.673C80.2644 131.052 80.7758 110.978 85.2883 89.2823C89.8008 67.5862 81.213 49.4654 49.8992 19.8374" stroke="url(#paint7_linear_2374_39108)" stroke-width="0.6"/>
</g>
<defs>
<linearGradient id="paint0_linear_2374_39108" x1="70.3201" y1="-0.648541" x2="123.13" y2="308.497" gradientUnits="userSpaceOnUse">
<stop stop-color="white"/>
<stop offset="1" stop-color="white" stop-opacity="0.2"/>
</linearGradient>
<linearGradient id="paint1_linear_2374_39108" x1="67.3213" y1="2.36708" x2="120.131" y2="311.513" gradientUnits="userSpaceOnUse">
<stop stop-color="white"/>
<stop offset="1" stop-color="white" stop-opacity="0.2"/>
</linearGradient>
<linearGradient id="paint2_linear_2374_39108" x1="64.6092" y1="5.08583" x2="117.419" y2="314.231" gradientUnits="userSpaceOnUse">
<stop stop-color="white"/>
<stop offset="1" stop-color="white" stop-opacity="0.2"/>
</linearGradient>
<linearGradient id="paint3_linear_2374_39108" x1="62.0911" y1="7.61318" x2="114.901" y2="316.759" gradientUnits="userSpaceOnUse">
<stop stop-color="white"/>
<stop offset="1" stop-color="white" stop-opacity="0.2"/>
</linearGradient>
<linearGradient id="paint4_linear_2374_39108" x1="59.3814" y1="10.3339" x2="112.191" y2="319.48" gradientUnits="userSpaceOnUse">
<stop stop-color="white"/>
<stop offset="1" stop-color="white" stop-opacity="0.2"/>
</linearGradient>
<linearGradient id="paint5_linear_2374_39108" x1="56.8636" y1="12.8612" x2="109.673" y2="322.007" gradientUnits="userSpaceOnUse">
<stop stop-color="white"/>
<stop offset="1" stop-color="white" stop-opacity="0.2"/>
</linearGradient>
<linearGradient id="paint6_linear_2374_39108" x1="54.1538" y1="15.5839" x2="106.963" y2="324.73" gradientUnits="userSpaceOnUse">
<stop stop-color="white"/>
<stop offset="1" stop-color="white" stop-opacity="0.2"/>
</linearGradient>
<linearGradient id="paint7_linear_2374_39108" x1="51.6416" y1="18.0876" x2="104.486" y2="327.264" gradientUnits="userSpaceOnUse">
<stop stop-color="white"/>
<stop offset="1" stop-color="white" stop-opacity="0.2"/>
</linearGradient>
</defs>
</svg>
