<svg width="737" height="366" viewBox="0 0 737 366" fill="none" xmlns="http://www.w3.org/2000/svg">
<g opacity="0.8">
<path fill-rule="evenodd" clip-rule="evenodd" d="M468.462 216.414L468.467 216.412C468.447 216.384 468.427 216.355 468.407 216.326C467.167 214.496 468.075 212.297 470.433 211.399L470.43 211.395C468.052 212.266 465.128 211.496 463.888 209.665L463.871 209.64L463.867 209.641C463.873 209.65 463.879 209.66 463.885 209.669C465.132 211.507 464.209 213.719 461.825 214.609C461.816 214.612 461.807 214.615 461.797 214.619L461.798 214.62L461.83 214.608C464.215 213.718 467.158 214.487 468.404 216.326C468.424 216.355 468.443 216.384 468.462 216.414Z" fill="white"/>
<path fill-rule="evenodd" clip-rule="evenodd" d="M400.331 236.305L400.335 236.305C400.335 236.281 400.336 236.257 400.337 236.233C400.423 234.696 402.116 233.536 404.137 233.618C402.119 233.477 400.562 232.137 400.647 230.599L400.649 230.572L400.647 230.572C400.647 230.581 400.646 230.59 400.646 230.6C400.561 232.125 398.893 233.279 396.893 233.217C398.889 233.375 400.42 234.706 400.336 236.232C400.334 236.256 400.333 236.281 400.331 236.305Z" fill="white"/>
<path fill-rule="evenodd" clip-rule="evenodd" d="M272.939 205.427L272.943 205.427C272.944 205.403 272.945 205.379 272.946 205.355C273.031 203.818 274.725 202.658 276.746 202.74C274.727 202.599 273.17 201.259 273.256 199.721L273.257 199.694L273.256 199.694C273.255 199.703 273.255 199.712 273.254 199.721C273.17 201.247 271.502 202.401 269.502 202.339C271.497 202.497 273.029 203.828 272.944 205.354C272.943 205.378 272.941 205.403 272.939 205.427Z" fill="white"/>
<path fill-rule="evenodd" clip-rule="evenodd" d="M259.261 162.088L259.265 162.088C259.266 162.064 259.267 162.041 259.268 162.017C259.353 160.479 261.047 159.32 263.068 159.401C261.049 159.261 259.492 157.921 259.578 156.383L259.579 156.355L259.578 156.355C259.577 156.364 259.577 156.374 259.576 156.383C259.492 157.908 257.824 159.062 255.824 159C257.819 159.158 259.351 160.49 259.267 162.015C259.265 162.04 259.263 162.064 259.261 162.088Z" fill="white"/>
<path fill-rule="evenodd" clip-rule="evenodd" d="M224.547 136.85L224.551 136.85C224.551 136.826 224.552 136.802 224.554 136.777C224.639 135.24 226.333 134.08 228.354 134.162C226.335 134.021 224.778 132.681 224.863 131.143L224.865 131.117L224.855 131.116C224.855 131.125 224.855 131.133 224.854 131.142C224.769 132.675 223.084 133.833 221.07 133.758C223.085 133.902 224.637 135.24 224.552 136.776C224.551 136.801 224.549 136.825 224.547 136.85Z" fill="white"/>
<path fill-rule="evenodd" clip-rule="evenodd" d="M212.58 162.068L212.589 162.066C212.578 162.047 212.567 162.029 212.557 162.01C211.874 160.79 212.6 159.412 214.179 158.922L214.179 158.922C212.603 159.39 210.786 158.803 210.088 157.605C210.735 158.813 210.013 160.166 208.458 160.654C210.044 160.192 211.869 160.795 212.55 162.011C212.56 162.03 212.57 162.049 212.58 162.068Z" fill="white"/>
<path fill-rule="evenodd" clip-rule="evenodd" d="M254.663 128.351L254.671 128.348C254.66 128.33 254.649 128.311 254.639 128.293C253.957 127.074 254.68 125.698 256.253 125.207L256.251 125.203C254.661 125.674 252.826 125.072 252.143 123.851L252.133 123.833L252.132 123.833C252.136 123.839 252.139 123.845 252.143 123.852C252.829 125.078 252.092 126.464 250.497 126.947C250.49 126.949 250.483 126.951 250.476 126.953L250.477 126.955L250.502 126.948C252.097 126.465 253.946 127.067 254.632 128.294C254.643 128.313 254.653 128.332 254.663 128.351Z" fill="white"/>
<path fill-rule="evenodd" clip-rule="evenodd" d="M483.911 252.561L483.919 252.559C483.909 252.541 483.898 252.523 483.888 252.505C483.206 251.286 483.929 249.91 485.503 249.419L485.501 249.415C483.957 249.873 482.182 249.318 481.455 248.168C482.039 249.359 481.315 250.67 479.789 251.148C481.375 250.686 483.2 251.289 483.881 252.506C483.891 252.524 483.901 252.543 483.911 252.561Z" fill="white"/>
<path fill-rule="evenodd" clip-rule="evenodd" d="M357.242 244.538L357.25 244.535C357.239 244.517 357.228 244.499 357.218 244.48C356.535 243.26 357.261 241.882 358.84 241.392L358.84 241.392C357.264 241.86 355.447 241.273 354.749 240.075C355.396 241.283 354.674 242.636 353.119 243.124C354.705 242.662 356.53 243.264 357.211 244.481C357.221 244.5 357.232 244.519 357.242 244.538Z" fill="white"/>
<path fill-rule="evenodd" clip-rule="evenodd" d="M522.663 228.851L522.671 228.848C522.66 228.83 522.65 228.812 522.639 228.793C521.958 227.575 522.68 226.199 524.254 225.707L524.254 225.707C522.68 226.171 520.867 225.584 520.17 224.387C520.818 225.596 520.096 226.949 518.54 227.437C520.127 226.975 521.952 227.577 522.632 228.794C522.643 228.813 522.653 228.832 522.663 228.851Z" fill="white"/>
<path fill-rule="evenodd" clip-rule="evenodd" d="M294.476 170.097L294.485 170.094C294.474 170.076 294.463 170.058 294.453 170.04C293.77 168.819 294.497 167.441 296.076 166.952L296.076 166.952C294.5 167.42 292.682 166.833 291.984 165.634C292.632 166.843 291.91 168.195 290.354 168.683C291.941 168.221 293.766 168.824 294.446 170.041C294.457 170.059 294.467 170.078 294.476 170.097Z" fill="white"/>
<path fill-rule="evenodd" clip-rule="evenodd" d="M320.186 225.251L320.195 225.248C320.184 225.23 320.173 225.211 320.163 225.193C319.48 223.972 320.206 222.594 321.785 222.105L321.784 222.105C320.209 222.572 318.392 221.985 317.694 220.787C318.341 221.996 317.619 223.348 316.064 223.836C317.65 223.374 319.475 223.977 320.156 225.194C320.166 225.213 320.176 225.232 320.186 225.251Z" fill="white"/>
<path d="M723.683 276.856C725.169 236.301 680.903 160.277 491.953 180.617C255.766 206.043 224.155 155.302 197.457 91.4475C170.759 27.5928 125.155 2.38343 18.0134 0.476389" stroke="url(#paint0_linear_113_5238)" stroke-opacity="0.6" stroke-width="0.240369"/>
<path d="M722.919 291.131C724.404 250.576 680.138 174.551 491.188 194.891C255.001 220.317 223.39 169.577 196.692 105.722C169.995 41.8672 124.39 16.6578 17.2488 14.7508" stroke="url(#paint1_linear_113_5238)" stroke-opacity="0.6" stroke-width="0.240369"/>
<path d="M722.213 304.021C723.699 263.466 679.433 187.441 490.483 207.782C254.296 233.207 222.685 182.467 195.987 118.612C169.289 54.7573 123.685 29.548 16.5435 27.6409" stroke="url(#paint2_linear_113_5238)" stroke-opacity="0.6" stroke-width="0.240369"/>
<path d="M721.566 315.99C723.052 275.436 678.785 199.411 489.836 219.751C253.648 245.177 222.038 194.437 195.34 130.582C168.642 66.727 123.038 41.5177 15.8962 39.6107" stroke="url(#paint3_linear_113_5238)" stroke-opacity="0.6" stroke-width="0.240369"/>
<path d="M720.869 328.881C722.354 288.326 678.088 212.301 489.138 232.642C252.951 258.067 221.34 207.327 194.642 143.472C167.945 79.6174 122.34 54.4081 15.1987 52.501" stroke="url(#paint4_linear_113_5238)" stroke-opacity="0.6" stroke-width="0.240369"/>
<path d="M720.23 340.856C721.716 300.301 677.449 224.276 488.499 244.617C252.312 270.042 220.702 219.302 194.004 155.447C167.306 91.5925 121.702 66.3832 14.5601 64.4761" stroke="url(#paint5_linear_113_5238)" stroke-opacity="0.6" stroke-width="0.240369"/>
<path d="M719.525 353.746C721.01 313.191 676.744 237.167 487.794 257.507C251.607 282.933 219.997 232.192 193.299 168.338C166.601 104.483 120.997 79.2736 13.855 77.3665" stroke="url(#paint6_linear_113_5238)" stroke-opacity="0.6" stroke-width="0.240369"/>
<path d="M718.893 365.716C720.373 325.161 676.098 249.131 487.153 269.454C250.972 294.857 219.355 244.113 192.65 180.255C165.944 116.397 120.337 91.1825 13.1966 89.2652" stroke="url(#paint7_linear_113_5238)" stroke-opacity="0.6" stroke-width="0.240369"/>
</g>
<defs>
<linearGradient id="paint0_linear_113_5238" x1="18.4602" y1="-7.81083" x2="745.115" y2="425.46" gradientUnits="userSpaceOnUse">
<stop stop-color="white"/>
<stop offset="1" stop-color="white" stop-opacity="0.2"/>
</linearGradient>
<linearGradient id="paint1_linear_113_5238" x1="17.6956" y1="6.46359" x2="744.351" y2="439.735" gradientUnits="userSpaceOnUse">
<stop stop-color="white"/>
<stop offset="1" stop-color="white" stop-opacity="0.2"/>
</linearGradient>
<linearGradient id="paint2_linear_113_5238" x1="16.9903" y1="19.3537" x2="743.645" y2="452.625" gradientUnits="userSpaceOnUse">
<stop stop-color="white"/>
<stop offset="1" stop-color="white" stop-opacity="0.2"/>
</linearGradient>
<linearGradient id="paint3_linear_113_5238" x1="16.3431" y1="31.3234" x2="742.998" y2="464.595" gradientUnits="userSpaceOnUse">
<stop stop-color="white"/>
<stop offset="1" stop-color="white" stop-opacity="0.2"/>
</linearGradient>
<linearGradient id="paint4_linear_113_5238" x1="15.6456" y1="44.2138" x2="742.301" y2="477.485" gradientUnits="userSpaceOnUse">
<stop stop-color="white"/>
<stop offset="1" stop-color="white" stop-opacity="0.2"/>
</linearGradient>
<linearGradient id="paint5_linear_113_5238" x1="15.0069" y1="56.1889" x2="741.662" y2="489.46" gradientUnits="userSpaceOnUse">
<stop stop-color="white"/>
<stop offset="1" stop-color="white" stop-opacity="0.2"/>
</linearGradient>
<linearGradient id="paint6_linear_113_5238" x1="14.3018" y1="69.0793" x2="740.957" y2="502.351" gradientUnits="userSpaceOnUse">
<stop stop-color="white"/>
<stop offset="1" stop-color="white" stop-opacity="0.2"/>
</linearGradient>
<linearGradient id="paint7_linear_113_5238" x1="13.6423" y1="80.9779" x2="740.4" y2="514.231" gradientUnits="userSpaceOnUse">
<stop stop-color="white"/>
<stop offset="1" stop-color="white" stop-opacity="0.2"/>
</linearGradient>
</defs>
</svg>
