<svg width="214" height="180" viewBox="0 0 214 180" fill="none" xmlns="http://www.w3.org/2000/svg">
<path d="M200.095 45.21H68.1797V125.127H200.095V45.21Z" fill="#DFDBD8"/>
<path d="M197.872 28.085H14.0425C13.9296 28.085 13.8214 28.0401 13.7416 27.9603C13.6618 27.8805 13.6169 27.7723 13.6169 27.6594C13.6169 27.5466 13.6618 27.4383 13.7416 27.3585C13.8214 27.2787 13.9296 27.2339 14.0425 27.2339H197.872C197.985 27.2339 198.093 27.2787 198.173 27.3585C198.253 27.4383 198.298 27.5466 198.298 27.6594C198.298 27.7723 198.253 27.8805 198.173 27.9603C198.093 28.0401 197.985 28.085 197.872 28.085Z" fill="#A7A7A7"/>
<path d="M23.6223 22.1278C26.2074 22.1278 28.3031 20.0321 28.3031 17.447C28.3031 14.8618 26.2074 12.7661 23.6223 12.7661C21.0371 12.7661 18.9414 14.8618 18.9414 17.447C18.9414 20.0321 21.0371 22.1278 23.6223 22.1278Z" fill="#1A1A1A"/>
<path d="M39.7902 22.1278C42.3754 22.1278 44.4711 20.0321 44.4711 17.447C44.4711 14.8618 42.3754 12.7661 39.7902 12.7661C37.2051 12.7661 35.1094 14.8618 35.1094 17.447C35.1094 20.0321 37.2051 22.1278 39.7902 22.1278Z" fill="#1A1A1A"/>
<path d="M55.9621 22.1278C58.5473 22.1278 60.6429 20.0321 60.6429 17.447C60.6429 14.8618 58.5473 12.7661 55.9621 12.7661C53.3769 12.7661 51.2812 14.8618 51.2812 17.447C51.2812 20.0321 53.3769 22.1278 55.9621 22.1278Z" fill="#1A1A1A"/>
<path d="M143.502 84.1939L135.472 75.9183C135.297 75.7417 135.088 75.6027 134.857 75.51C134.626 75.4173 134.378 75.3727 134.13 75.379H134.106C133.857 75.3727 133.61 75.4173 133.379 75.51C133.148 75.6027 132.939 75.7417 132.764 75.9183L124.734 84.1939C124.39 84.5149 124.189 84.959 124.173 85.4287C124.157 85.8984 124.329 86.3552 124.65 86.6985C124.677 86.7275 124.705 86.7555 124.734 86.7826C125.101 87.1263 125.585 87.3175 126.088 87.3175C126.591 87.3175 127.075 87.1263 127.442 86.7826L132.2 81.8089V94.6327C132.222 95.1265 132.434 95.5927 132.791 95.9342C133.148 96.2758 133.624 96.4665 134.118 96.4665C134.612 96.4665 135.087 96.2758 135.444 95.9342C135.802 95.5927 136.013 95.1265 136.035 94.6327V81.8089L140.793 86.7826C141.161 87.1263 141.645 87.3175 142.148 87.3175C142.651 87.3175 143.135 87.1263 143.502 86.7826C143.845 86.4617 144.047 86.0175 144.063 85.5478C144.079 85.0781 143.907 84.6213 143.586 84.2781C143.559 84.2491 143.531 84.221 143.502 84.1939Z" fill="white"/>
<path d="M134.134 104.886C130.407 104.886 126.763 103.781 123.664 101.71C120.565 99.6391 118.15 96.6959 116.724 93.2525C115.297 89.809 114.924 86.0199 115.651 82.3643C116.378 78.7087 118.173 75.3509 120.809 72.7154C123.444 70.0799 126.802 68.285 130.458 67.5579C134.113 66.8308 137.902 67.204 141.346 68.6303C144.789 70.0566 147.732 72.472 149.803 75.5711C151.874 78.6701 152.979 82.3136 152.979 86.0408C152.973 91.0371 150.986 95.8271 147.453 99.36C143.92 102.893 139.13 104.88 134.134 104.886ZM134.134 67.8938C130.545 67.8938 127.036 68.9581 124.052 70.9521C121.068 72.9461 118.742 75.7803 117.368 79.0962C115.995 82.4122 115.636 86.0609 116.336 89.5811C117.036 93.1013 118.764 96.3348 121.302 98.8727C123.84 101.411 127.074 103.139 130.594 103.839C134.114 104.539 137.763 104.18 141.079 102.806C144.395 101.433 147.229 99.107 149.223 96.1227C151.217 93.1385 152.281 89.6299 152.281 86.0408C152.276 81.2296 150.362 76.617 146.96 73.2149C143.558 69.8129 138.945 67.8992 134.134 67.8938Z" fill="white"/>
<path d="M144.62 167.813H21.4144C20.1551 167.809 19.1344 165.722 19.1328 163.144V100.611C19.1328 98.0336 20.1551 95.9467 21.4144 95.9424H144.62C145.879 95.9456 146.9 98.0331 146.902 100.611V163.144C146.9 165.721 145.878 167.809 144.62 167.813Z" fill="white"/>
<path d="M144.62 167.813H21.4144C20.1551 167.809 19.1344 165.722 19.1328 163.144V100.611C19.1328 98.0336 20.1551 95.9467 21.4144 95.9424H144.62C145.879 95.9456 146.9 98.0331 146.902 100.611V163.144C146.9 165.721 145.878 167.809 144.62 167.813ZM21.4144 97.8096C20.6585 97.8096 20.0463 99.0645 20.0452 100.611V163.144C20.0452 164.69 20.6585 165.943 21.4144 165.945H144.62C145.376 165.945 145.988 164.69 145.989 163.144V100.611C145.989 99.0646 145.376 97.8112 144.62 97.8096L21.4144 97.8096Z" fill="#DFDBD8"/>
<rect x="35" y="119" width="26" height="26" rx="4" fill="url(#paint0_linear_6506_4068)"/>
<rect x="70" y="125" width="62" height="6" rx="1" fill="#D9D9D9"/>
<rect x="70" y="135" width="62" height="4" rx="1" fill="#D9D9D9"/>
<g clip-path="url(#clip0_6506_4068)">
<path d="M47.9999 136.167C45.6987 136.167 43.8333 134.301 43.8333 132C43.8333 129.699 45.6987 127.833 47.9999 127.833C50.3012 127.833 52.1666 129.699 52.1666 132C52.1666 134.301 50.3012 136.167 47.9999 136.167ZM47.5833 133.25V134.083H48.4166V133.25H47.5833ZM47.5833 129.917V132.417H48.4166V129.917H47.5833Z" fill="white"/>
</g>
<defs>
<linearGradient id="paint0_linear_6506_4068" x1="61" y1="119" x2="31.9581" y2="123.019" gradientUnits="userSpaceOnUse">
<stop stop-color="#FB6609"/>
<stop offset="1" stop-color="#E40849"/>
</linearGradient>
<clipPath id="clip0_6506_4068">
<rect width="10" height="10" fill="white" transform="translate(43 127)"/>
</clipPath>
</defs>
</svg>
