<svg width="260" height="180" viewBox="0 0 260 180" fill="none" xmlns="http://www.w3.org/2000/svg">
<g clip-path="url(#clip0_6506_4195)">
<path d="M97.7861 35.143C95.8099 27.938 111.749 21.7596 115.934 27.5618C116.516 26.7369 118.667 26.2358 119.654 26.4889C120.641 26.7419 121.471 27.3745 122.281 27.9869C123.394 28.8422 124.548 29.7279 125.231 30.9576C125.92 32.1824 126.026 33.8525 125.1 34.9153C124.366 35.7604 122.2 36.307 121.096 36.5297C120.327 36.6866 119.679 36.8131 119.123 36.9042C118.627 36.1805 118.374 35.2847 118.465 34.4092C117.716 34.9051 117.21 35.7553 117.129 36.6562C117.114 36.8434 123.349 59.7844 123.349 59.7844C122.706 60.164 121.911 60.5182 120.995 60.8421C119.442 58.4989 118.166 55.7357 117.326 52.8459C117.134 54.6324 117.164 56.5707 117.397 58.5394C117.518 59.587 117.701 60.6397 117.933 61.6923C110.524 63.2916 99.3803 62.7652 94.532 55.9634C94.5311 55.9353 94.5303 55.9071 94.5295 55.879C94.4948 54.6062 92.7583 54.2899 92.2937 55.4753C92.1761 55.7754 92.0678 56.0352 91.9712 56.2418C90.5592 51.191 92.3862 45.3457 97.7861 35.143Z" fill="#1A1A1A"/>
<path d="M198.497 92.2781C196.744 94.3573 193.638 94.6218 191.559 92.8687C191.357 92.6989 191.17 92.5132 190.998 92.3134L167.6 99.7242L163.959 93.7563L191.814 85.1575C193.999 83.5452 197.078 84.0097 198.69 86.195C200.039 88.0236 199.959 90.5385 198.497 92.2781Z" fill="#FFB6B6"/>
<path d="M115.634 73.759C115.634 73.759 125.996 62.1043 130.509 67.0551C135.023 72.0058 149.105 93.7005 149.105 93.7005L181.976 86.7653L185.155 95.4403L147.831 107.535C145.025 108.445 141.95 107.502 140.136 105.176L115.634 73.759Z" fill="url(#paint0_linear_6506_4195)"/>
<path d="M138.139 180H86.7452L86.6983 179.599L86.6682 179.331L86.2269 175.586L85.6016 170.253L85.3609 168.204C85.3442 168.1 85.3275 168 85.3141 167.896C85.1035 166.562 84.9831 165.221 84.9396 163.884C84.8761 162.045 84.9597 160.209 85.157 158.397V158.387C85.2639 157.408 85.401 156.438 85.5716 155.478C85.7855 154.245 86.043 153.031 86.3406 151.844C86.6816 150.466 87.0695 149.126 87.4941 147.832C87.9823 146.317 88.5172 144.866 89.0689 143.495C89.1291 143.348 89.1893 143.201 89.2461 143.057L89.2495 143.054C92.1583 135.962 95.4618 131.117 95.4618 131.117H132.903C132.903 131.117 134.635 138.717 135.494 144.993C135.631 145.986 135.745 146.942 135.828 147.832C135.979 149.473 136.022 150.884 135.892 151.844C135.812 152.439 135.665 152.86 135.437 153.054C133.378 154.813 135.735 158.544 135.735 158.544C135.735 158.544 137.5 161.243 135.962 162.761C135.658 163.061 135.484 163.449 135.4 163.884C135.267 164.603 135.384 165.439 135.568 166.178C135.752 166.92 136.006 167.565 136.146 167.896C136.21 168.043 136.25 168.127 136.25 168.127L136.511 170.19L136.765 172.176L137.196 175.586L137.326 176.188L137.998 179.331L138.055 179.599L138.139 180Z" fill="#1A1A1A"/>
<path d="M112.179 57.814L96.4649 59.2135L93.5687 68.2263L90.4124 68.6832C85.0189 69.4642 81.8089 75.1209 83.9046 80.1516L86.6817 86.8183C86.6817 86.8183 82.6025 99.4094 87.6124 104.7L89.7444 128L84.9352 143.361L141.151 145.176L131.576 125.908L131.292 113.945C131.292 113.945 137.411 92.3219 131.738 85.4439L129.524 65.881L117.992 64.1512L112.179 57.814Z" fill="url(#paint1_linear_6506_4195)"/>
<path d="M122.817 46.2512C124.437 39.267 120.088 32.2925 113.103 30.6733C106.119 29.054 99.1447 33.4031 97.5255 40.3873C95.9062 47.3714 100.255 54.3459 107.239 55.9652C114.224 57.5844 121.198 53.2353 122.817 46.2512Z" fill="#FFB6B6"/>
<path d="M90.7009 36.1552C88.7247 28.9502 104.664 22.7718 108.849 28.574C109.431 27.7491 111.582 27.2481 112.569 27.5011C113.556 27.7541 114.386 28.3867 115.196 28.9991C116.309 29.8544 117.463 30.7401 118.146 31.9699C118.834 33.1946 118.941 34.8647 118.014 35.9275C117.281 36.7726 115.115 37.3192 114.011 37.5419C113.242 37.6988 112.594 37.8253 112.038 37.9164C111.542 37.1927 111.289 36.2969 111.38 35.4214C110.631 35.9173 110.125 36.7676 110.044 37.6684C110.028 37.8557 116.263 60.7966 116.263 60.7966C115.621 61.1762 114.826 61.5304 113.91 61.8543C112.356 59.5111 111.081 56.7479 110.241 53.8581C110.049 55.6446 110.079 57.5829 110.312 59.5516C110.433 60.5992 110.615 61.6519 110.848 62.7045C103.439 64.3038 92.2951 63.7775 87.4468 56.9756C87.4459 56.9475 87.4451 56.9193 87.4443 56.8912C87.4096 55.6184 85.6731 55.3021 85.2085 56.4875C85.0908 56.7876 84.9826 57.0474 84.886 57.254C83.474 52.2032 85.301 46.3579 90.7009 36.1552Z" fill="#1A1A1A"/>
<path d="M201.669 179.599H27.1362L0.0534668 179.933L189.988 168.594C196.324 168.215 201.669 173.252 201.669 179.599Z" fill="#817C7C"/>
<path d="M218.261 41.6335H173.774C172.749 41.6335 171.914 40.8018 171.914 39.7797C171.914 38.7576 172.749 37.9263 173.774 37.9263H218.261C219.287 37.9263 220.121 38.7576 220.121 39.7797C220.121 40.8018 219.287 41.6335 218.261 41.6335Z" fill="url(#paint2_linear_6506_4195)"/>
<path d="M196.001 47.612C195.835 47.2022 195.26 47.2023 195.094 47.6121C193.934 50.4715 192.283 53.6737 190.487 56.1208C190.199 56.5126 190.596 57.0362 191.053 56.8708L194.903 55.4779V79.3121H196.192V55.4779L200.044 56.871C200.501 57.0363 200.897 56.5128 200.609 56.121C198.813 53.6738 197.162 50.4715 196.001 47.612Z" fill="#817C7C"/>
<path d="M258.332 55.2578H230.904C230.272 55.2578 229.757 54.745 229.757 54.1149C229.757 53.4847 230.272 52.9722 230.904 52.9722H258.332C258.964 52.9722 259.478 53.4847 259.478 54.1149C259.478 54.745 258.964 55.2578 258.332 55.2578Z" fill="#F3F3F3"/>
<path d="M244.608 58.9439C244.505 58.6912 244.151 58.6912 244.049 58.9439C243.333 60.7068 242.315 62.681 241.208 64.1898C241.031 64.4313 241.275 64.7541 241.557 64.6522L243.931 63.7934V78.4878H244.725V63.7934L247.1 64.6523C247.382 64.7542 247.626 64.4314 247.449 64.1899C246.341 62.6811 245.323 60.7068 244.608 58.9439Z" fill="#F3F3F3"/>
<path d="M244.622 92.6666C247.914 92.6666 250.582 89.9983 250.582 86.7068C250.582 83.4154 247.914 80.7471 244.622 80.7471C241.331 80.7471 238.663 83.4154 238.663 86.7068C238.663 89.9983 241.331 92.6666 244.622 92.6666Z" fill="#F3F3F3"/>
<path d="M170.396 21.4882H142.969C142.336 21.4882 141.822 20.9755 141.822 20.3453C141.822 19.7152 142.336 19.2026 142.969 19.2026H170.396C171.029 19.2026 171.543 19.7152 171.543 20.3453C171.543 20.9755 171.029 21.4882 170.396 21.4882Z" fill="#F3F3F3"/>
<path d="M156.672 25.1738C156.57 24.9212 156.216 24.9212 156.113 25.1739C155.398 26.9368 154.38 28.911 153.273 30.4198C153.095 30.6613 153.34 30.9841 153.622 30.8822L155.995 30.0234V44.7178H156.79V30.0234L159.165 30.8823C159.446 30.9842 159.691 30.6614 159.514 30.4199C158.406 28.9111 157.388 26.9368 156.672 25.1738Z" fill="#F3F3F3"/>
<path d="M156.687 58.8966C159.979 58.8966 162.647 56.2283 162.647 52.9368C162.647 49.6453 159.979 46.9771 156.687 46.9771C153.396 46.9771 150.727 49.6453 150.727 52.9368C150.727 56.2283 153.396 58.8966 156.687 58.8966Z" fill="#F3F3F3"/>
<path d="M87.5903 168.417C88.9966 166.089 88.2496 163.062 85.9219 161.656C85.6964 161.52 85.4603 161.402 85.2159 161.303L84.7223 136.765L77.9014 135.232L78.7007 164.373C77.8753 166.961 79.3037 169.727 81.891 170.552C84.0559 171.243 86.4121 170.36 87.5903 168.417Z" fill="#FFB6B6"/>
<path d="M92.3354 71.6023C92.3354 71.6023 83.9765 69.5962 81.3017 75.2802C78.6269 80.9642 78.3992 105.699 78.3992 105.699L76.9551 155.86L87.558 155.392L96.0133 93.6697L92.3354 71.6023Z" fill="url(#paint3_linear_6506_4195)"/>
<path d="M88.5837 175.819C88.7718 176.055 89.0577 176.192 89.3594 176.19H143.639C144.19 176.19 144.637 175.742 144.636 175.19C144.636 175.122 144.629 175.054 144.615 174.987L143.772 170.984C143.701 170.653 143.467 170.38 143.15 170.259C143.038 170.214 142.917 170.192 142.796 170.192H90.1986C90.0774 170.192 89.9571 170.214 89.8442 170.259C89.5274 170.38 89.2933 170.653 89.2223 170.984L88.3798 174.987C88.319 175.281 88.3939 175.586 88.5837 175.819Z" fill="#A7A7A7"/>
<path d="M67.8035 86.2251V148.836C67.8048 150.498 69.1513 151.844 70.8127 151.846H163.596C165.258 151.844 166.604 150.498 166.605 148.836V86.2251C166.601 84.5653 165.256 83.2214 163.596 83.2192H70.8127C69.1529 83.2214 67.8074 84.5653 67.8035 86.2251Z" fill="#F3F3F3"/>
<path d="M128.807 138.456C128.697 138.42 128.58 138.403 128.462 138.403H106.756C106.118 138.403 105.596 138.921 105.596 139.56V173.851H129.619V139.56C129.619 139.055 129.292 138.607 128.807 138.456ZM120.1 155.321C120.094 156.739 118.94 157.882 117.522 157.876C116.115 157.866 114.978 156.729 114.971 155.321V151.342C114.985 149.928 116.145 148.791 117.559 148.805C118.957 148.818 120.087 149.948 120.1 151.342V155.321Z" fill="#A7A7A7"/>
</g>
<defs>
<linearGradient id="paint0_linear_6506_4195" x1="185.155" y1="65.8301" x2="109.95" y2="83.0379" gradientUnits="userSpaceOnUse">
<stop stop-color="#FB6609"/>
<stop offset="1" stop-color="#E40849"/>
</linearGradient>
<linearGradient id="paint1_linear_6506_4195" x1="141.151" y1="57.814" x2="75.7951" y2="63.8077" gradientUnits="userSpaceOnUse">
<stop stop-color="#FB6609"/>
<stop offset="1" stop-color="#E40849"/>
</linearGradient>
<linearGradient id="paint2_linear_6506_4195" x1="220.121" y1="37.9263" x2="207.173" y2="61.2269" gradientUnits="userSpaceOnUse">
<stop stop-color="#FB6609"/>
<stop offset="1" stop-color="#E40849"/>
</linearGradient>
<linearGradient id="paint3_linear_6506_4195" x1="96.0133" y1="71.2588" x2="74.3387" y2="71.9345" gradientUnits="userSpaceOnUse">
<stop stop-color="#FB6609"/>
<stop offset="1" stop-color="#E40849"/>
</linearGradient>
<clipPath id="clip0_6506_4195">
<rect width="259.478" height="180" fill="white"/>
</clipPath>
</defs>
</svg>
