<svg width="48" height="57" viewBox="0 0 48 57" fill="none" xmlns="http://www.w3.org/2000/svg">
<path fill-rule="evenodd" clip-rule="evenodd" d="M5.14473 46.9382C8.9386 46.3734 16.9943 45.9899 18.2026 46.3137C18.8823 46.4958 19.5477 46.3538 19.6428 45.999C19.853 45.2146 17.5163 44.2682 15.1671 44.1992C13.6043 44.1408 13.5994 44.1594 15.6012 43.3346C20.2296 41.3921 27.8506 35.6076 28.4626 33.5498C28.6467 32.9386 37.9903 32.2795 44.7639 18.7816C46.8123 14.6866 47.0867 9.05529 45.2569 8.78517C44.9448 8.74158 44.6721 8.92873 44.5781 9.20381L43.7493 11.8439C39.2841 25.9404 30.1494 29.8981 30.1255 29.9117C30.1139 29.7285 31.8063 25.6782 27.2643 22.5395C25.2654 21.1632 22.6815 20.611 20.4636 21.6381C13.3523 24.9169 15.2518 32.9324 23.2511 33.5144C24.3257 33.5822 24.3746 33.4752 22.5969 35.2007C19.5364 38.1638 14.0857 41.2872 8.63804 43.1903C6.60963 43.8879 6.61849 43.9303 8.60184 41.7395C13.2946 36.6115 14.3498 33.051 10.6422 34.8799C9.80237 35.2954 9.5285 35.5623 6.43509 39.1771C5.2545 40.5622 3.33005 42.6088 2.16288 43.7173C-0.0181472 45.8151 -0.173719 46.0936 0.558086 46.61C1.48257 47.238 2.55217 47.3244 5.14473 46.9382ZM20.0231 30.6077C17.6951 28.7228 19.3479 25.1223 23.3099 23.4015C25.3028 22.5344 27.0855 24.113 27.1513 26.8129C27.1852 28.4233 26.0597 31.2644 25.3088 31.4235C23.5543 31.8541 21.0675 31.468 20.0231 30.6077Z" fill="#CECECE"/>
</svg>
