<svg width="44" height="47" viewBox="0 0 44 47" fill="none" xmlns="http://www.w3.org/2000/svg">
<path d="M32.0928 38.1884C32.9999 37.5232 34.1489 37.8256 35.4188 39.0552C37.1725 40.7282 37.2329 41.3733 35.6607 41.4136C34.2496 41.4539 31.2865 38.773 32.0928 38.1884Z" fill="#CECECE"/>
<path d="M32.1939 34.7801C32.1939 34.256 34.0685 33.7117 34.8143 34.0342C36.0641 34.5583 43.099 40.0815 43.6029 40.283C44.8325 40.7668 42.9377 41.7545 41.5267 41.3715C40.2366 41.0087 32.1939 35.3445 32.1939 34.7801Z" fill="#CECECE"/>
<path d="M37.9987 14.2048C36.4869 14.225 36.0838 13.7009 37.0312 12.9147C38.8655 11.3626 40.2966 10.8385 41.4255 11.3223C42.7559 11.8666 40.0346 14.1645 37.9987 14.2048Z" fill="#CECECE"/>
<path d="M14.4362 16.3384C13.3477 16.3586 11.3118 15.0887 11.4328 14.4638C11.6545 13.335 13.9121 13.335 15.1216 14.4638C16.4318 15.6732 16.2101 16.3183 14.4362 16.3384Z" fill="#CECECE"/>
<path d="M33.525 13.6174C31.5496 13.9802 31.6907 13.0127 34.1297 9.54565C38.6248 3.15574 40.1366 1.54315 41.205 1.98661C42.6361 2.55102 35.581 13.2143 33.525 13.6174Z" fill="#CECECE"/>
<path d="M2.86486 10.5735C3.85257 10.9968 11.21 15.8749 13.0444 17.3061C13.4475 17.6286 12.0566 18.193 11.0286 18.1124C10.0006 18.0317 9.61759 17.8302 5.48532 15.1089C3.04627 13.4963 0.788642 12.0248 0.48628 11.8433C-0.965054 10.9363 1.13132 9.82764 2.86486 10.5735Z" fill="#CECECE"/>
<path d="M10.8886 36.5552C11.9771 35.5474 13.4889 34.983 13.9122 35.4264C14.1743 35.6885 13.6099 36.3335 12.5818 36.9181C10.9289 37.8655 9.73964 37.6034 10.8886 36.5552Z" fill="#CECECE"/>
<path d="M13.6886 25.6513C12.6001 25.0869 12.6203 24.9257 13.8499 23.7162C17.6193 20.0274 20.7639 11.521 21.4694 3.17579C21.7314 0.172338 24.5333 -2.66986 26.025 4.48603C27.9198 13.5166 32.3947 22.7083 35.3578 23.6557C37.3534 24.3008 37.1316 25.6513 35.0353 25.6513C31.9311 25.6513 30.0363 28.4532 28.8269 34.9036C28.0407 39.0963 26.7103 45.587 26.5894 45.9297C26.287 46.736 23.5255 48.0462 22.7998 42.6843C21.7919 35.1052 17.8411 27.7679 13.6886 25.6513ZM17.1759 24.7241C20.5018 27.0825 23.7875 31.6582 24.6341 35.1455C24.8357 35.9518 25.0574 35.8308 25.2187 34.8431C26.0048 29.8038 27.6779 26.7801 30.4999 25.1877L31.5884 24.5628C28.6858 21.4787 27.3755 20.3701 24.0092 10.9163C23.8681 10.5132 23.848 10.5736 23.1223 13.0127C21.7718 17.6488 20.0785 20.9546 17.9015 23.2324C16.813 24.4016 16.7929 24.462 17.1759 24.7241Z" fill="#CECECE"/>
<path d="M17.5401 36.9167C18.1247 37.2594 17.9634 37.5819 16.25 39.7589C13.2466 43.5687 11.6541 44.6975 10.6664 43.7098C10.2028 43.2461 10.4447 42.8228 12.6418 40.1217C15.3631 36.7756 16.2702 36.191 17.5401 36.9167Z" fill="#CECECE"/>
</svg>
