<svg width="410" height="184" viewBox="0 0 410 184" fill="none" xmlns="http://www.w3.org/2000/svg">
<g opacity="0.8">
<path fill-rule="evenodd" clip-rule="evenodd" d="M191.758 55.6969L191.756 55.694C191.79 55.6753 191.825 55.6561 191.859 55.6364C194.008 54.3957 194.742 51.6386 193.51 49.4623L193.51 49.4621C194.778 51.6176 197.533 52.3606 199.682 51.1198L199.716 51.1L199.717 51.1009C199.706 51.1073 199.694 51.1138 199.683 51.1203C197.523 52.3676 196.792 55.1471 198.052 57.3286C198.058 57.3397 198.065 57.3507 198.071 57.3617L198.071 57.3621L198.051 57.3282C196.792 55.1467 194.019 54.3894 191.859 55.6367C191.825 55.6564 191.791 55.6765 191.758 55.6969Z" fill="white" fill-opacity="0.6"/>
<path fill-rule="evenodd" clip-rule="evenodd" d="M303.67 173.383L303.668 173.38C303.702 173.361 303.737 173.342 303.771 173.323C305.92 172.082 306.654 169.325 305.421 167.149L305.422 167.148C306.691 169.303 309.445 170.046 311.594 168.805L311.628 168.786L311.629 168.787C311.617 168.793 311.606 168.8 311.595 168.807C309.434 170.054 308.704 172.833 309.963 175.015C309.97 175.026 309.976 175.037 309.983 175.048L309.983 175.048L309.963 175.015C308.704 172.833 305.931 172.076 303.771 173.323C303.737 173.343 303.703 173.363 303.67 173.383Z" fill="white" fill-opacity="0.8"/>
<path fill-rule="evenodd" clip-rule="evenodd" d="M372.417 156.362L372.415 156.358C372.449 156.339 372.484 156.32 372.518 156.3C374.667 155.059 375.401 152.303 374.169 150.127L374.17 150.126C375.438 152.281 378.193 153.023 380.342 151.783L380.375 151.763L380.376 151.765C380.365 151.772 380.354 151.778 380.342 151.785C378.187 153.029 377.455 155.799 378.703 157.978C377.439 155.808 374.674 155.057 372.519 156.301C372.485 156.321 372.451 156.341 372.417 156.362ZM378.717 158.003C378.721 158.01 378.726 158.018 378.73 158.026L378.73 158.026L378.717 158.003Z" fill="white"/>
<path fill-rule="evenodd" clip-rule="evenodd" d="M210.87 108.734C210.859 108.735 210.848 108.736 210.836 108.737C208.742 108.887 207.177 110.707 207.325 112.81C207.14 110.709 205.305 109.133 203.21 109.283C203.177 109.286 203.144 109.289 203.111 109.292L203.11 109.289C203.144 109.287 203.177 109.285 203.21 109.283C205.305 109.133 206.871 107.312 206.722 105.208L206.722 105.208C206.906 107.309 208.742 108.886 210.837 108.736L210.87 108.734L210.87 108.734Z" fill="white" fill-opacity="0.3"/>
<path fill-rule="evenodd" clip-rule="evenodd" d="M346.448 126.987C346.449 126.995 346.449 127.003 346.45 127.011L346.45 127.011L346.448 126.987ZM349.99 122.867C349.979 122.868 349.968 122.869 349.956 122.87C347.855 123.021 346.286 124.852 346.446 126.963C346.271 124.853 344.431 123.266 342.33 123.417C342.297 123.42 342.264 123.422 342.231 123.426L342.231 123.423C342.264 123.421 342.297 123.419 342.33 123.417C344.425 123.267 345.99 121.446 345.841 119.342L345.841 119.342C346.026 121.443 347.862 123.02 349.956 122.869L349.99 122.867L349.99 122.867Z" fill="white" fill-opacity="0.3"/>
<path fill-rule="evenodd" clip-rule="evenodd" d="M258.036 135.341C258.025 135.342 258.014 135.343 258.003 135.343C255.909 135.494 254.344 137.313 254.492 139.415C254.306 137.316 252.471 135.741 250.377 135.891C250.344 135.894 250.31 135.897 250.277 135.9L250.277 135.896C250.31 135.895 250.344 135.893 250.377 135.891C252.472 135.74 254.037 133.92 253.889 131.816L253.889 131.816C254.074 133.917 255.909 135.493 258.004 135.343L258.036 135.341L258.036 135.341Z" fill="white"/>
<path d="M68.7017 -74.0022C99.7752 -91.4702 169.731 -99.272 200.964 9.26524C240.007 144.937 287.21 140.825 343.36 128.715C399.509 116.605 430.399 130.413 458.531 186.43" stroke="url(#paint0_linear_6418_3287)" stroke-opacity="0.6"/>
<path d="M57.8271 -67.7239C88.9007 -85.1919 158.856 -92.9937 190.09 15.5436C229.132 151.215 276.336 147.104 332.485 134.994C388.635 122.883 419.525 136.692 447.657 192.708" stroke="url(#paint1_linear_6418_3287)" stroke-opacity="0.6"/>
<path d="M48.0054 -62.0535C79.0789 -79.5215 149.034 -87.3233 180.268 21.214C219.31 156.886 266.514 152.774 322.664 140.664C378.813 128.554 409.703 142.362 437.835 198.378" stroke="url(#paint2_linear_6418_3287)" stroke-opacity="0.6"/>
<path d="M38.8848 -56.7878C69.9583 -74.2559 139.914 -82.0577 171.148 26.4796C210.19 162.151 257.393 158.04 313.543 145.93C369.692 133.82 400.583 147.628 428.714 203.644" stroke="url(#paint3_linear_6418_3287)" stroke-opacity="0.6"/>
<path d="M29.063 -51.1169C60.1365 -68.585 130.092 -76.3868 161.326 32.1505C200.368 167.822 247.572 163.711 303.721 151.6C359.871 139.49 390.761 153.299 418.892 209.315" stroke="url(#paint4_linear_6418_3287)" stroke-opacity="0.6"/>
<path d="M19.9429 -45.8508C51.0164 -63.3189 120.972 -71.1207 152.206 37.4166C191.248 173.088 238.452 168.977 294.601 156.867C350.751 144.757 381.641 158.565 409.772 214.581" stroke="url(#paint5_linear_6418_3287)" stroke-opacity="0.6"/>
<path d="M10.1206 -40.1802C41.1942 -57.6482 111.15 -65.45 142.383 43.0873C181.426 178.759 228.629 174.647 284.779 162.537C340.928 150.427 371.818 164.235 399.95 220.252" stroke="url(#paint6_linear_6418_3287)" stroke-opacity="0.6"/>
<path d="M1 -34.9146C32.0736 -52.3826 102.029 -60.1844 133.263 48.3529C172.305 184.024 219.509 179.913 275.658 167.803C331.808 155.693 362.698 169.501 390.829 225.517" stroke="url(#paint7_linear_6418_3287)" stroke-opacity="0.6"/>
</g>
<defs>
<linearGradient id="paint0_linear_6418_3287" x1="464.845" y1="182.784" x2="66.0206" y2="-160.986" gradientUnits="userSpaceOnUse">
<stop stop-color="white"/>
<stop offset="1" stop-color="white" stop-opacity="0.2"/>
</linearGradient>
<linearGradient id="paint1_linear_6418_3287" x1="453.971" y1="189.063" x2="55.1461" y2="-154.707" gradientUnits="userSpaceOnUse">
<stop stop-color="white"/>
<stop offset="1" stop-color="white" stop-opacity="0.2"/>
</linearGradient>
<linearGradient id="paint2_linear_6418_3287" x1="444.149" y1="194.733" x2="45.3244" y2="-149.037" gradientUnits="userSpaceOnUse">
<stop stop-color="white"/>
<stop offset="1" stop-color="white" stop-opacity="0.2"/>
</linearGradient>
<linearGradient id="paint3_linear_6418_3287" x1="435.028" y1="199.999" x2="36.2038" y2="-143.771" gradientUnits="userSpaceOnUse">
<stop stop-color="white"/>
<stop offset="1" stop-color="white" stop-opacity="0.2"/>
</linearGradient>
<linearGradient id="paint4_linear_6418_3287" x1="425.207" y1="205.67" x2="26.382" y2="-138.1" gradientUnits="userSpaceOnUse">
<stop stop-color="white"/>
<stop offset="1" stop-color="white" stop-opacity="0.2"/>
</linearGradient>
<linearGradient id="paint5_linear_6418_3287" x1="416.086" y1="210.936" x2="17.2619" y2="-132.834" gradientUnits="userSpaceOnUse">
<stop stop-color="white"/>
<stop offset="1" stop-color="white" stop-opacity="0.2"/>
</linearGradient>
<linearGradient id="paint6_linear_6418_3287" x1="406.264" y1="216.606" x2="7.43959" y2="-127.164" gradientUnits="userSpaceOnUse">
<stop stop-color="white"/>
<stop offset="1" stop-color="white" stop-opacity="0.2"/>
</linearGradient>
<linearGradient id="paint7_linear_6418_3287" x1="397.144" y1="221.872" x2="-1.68101" y2="-121.898" gradientUnits="userSpaceOnUse">
<stop stop-color="white"/>
<stop offset="1" stop-color="white" stop-opacity="0.2"/>
</linearGradient>
</defs>
</svg>
