<svg width="334" height="172" viewBox="0 0 334 172" fill="none" xmlns="http://www.w3.org/2000/svg">
<g opacity="0.5">
<path fill-rule="evenodd" clip-rule="evenodd" d="M235.05 120.763C235.056 120.774 235.063 120.784 235.069 120.795L235.05 120.763L235.05 120.763ZM235.087 120.826C236.719 123.614 235.805 127.195 233.042 128.862C235.843 127.246 239.429 128.185 241.076 130.976C241.102 131.02 241.128 131.065 241.153 131.11L241.156 131.108C241.129 131.064 241.103 131.021 241.077 130.976C239.428 128.183 240.343 124.586 243.117 122.918L243.117 122.917C240.321 124.535 236.74 123.605 235.087 120.826Z" fill="white" fill-opacity="0.4"/>
<path fill-rule="evenodd" clip-rule="evenodd" d="M155.83 165.05L155.869 165.049C158.359 165.026 160.397 167.025 160.421 169.516C160.421 169.555 160.421 169.595 160.42 169.634L160.424 169.634C160.423 169.595 160.422 169.555 160.422 169.516C160.398 167.038 162.377 165.009 164.849 164.964L164.849 164.963C162.376 164.966 160.359 162.974 160.336 160.497L160.336 160.458L160.335 160.458C160.335 160.471 160.335 160.484 160.335 160.497C160.359 162.987 158.359 165.025 155.869 165.049C155.856 165.049 155.843 165.049 155.83 165.049L155.83 165.05Z" fill="white" fill-opacity="0.6"/>
<path fill-rule="evenodd" clip-rule="evenodd" d="M-0.627295 128.517L-0.588738 128.517C1.90177 128.493 3.93989 130.493 3.96352 132.983C3.96389 133.023 3.96376 133.062 3.96313 133.101L3.96674 133.101C3.96536 133.062 3.96448 133.023 3.96411 132.983C3.94061 130.506 5.91936 128.476 8.39165 128.432L8.39164 128.431C5.91896 128.433 3.90206 126.441 3.87855 123.964L3.87835 123.925L3.87731 123.925C3.87754 123.938 3.87772 123.951 3.87784 123.964C3.90147 126.455 1.90167 128.493 -0.588847 128.516C-0.601677 128.516 -0.614495 128.517 -0.6273 128.517L-0.627295 128.517Z" fill="white" fill-opacity="0.8"/>
<path fill-rule="evenodd" clip-rule="evenodd" d="M302.491 143.732L302.52 143.717C304.408 142.788 306.692 143.564 307.621 145.452C307.636 145.482 307.65 145.512 307.664 145.542L307.667 145.54C307.652 145.511 307.637 145.481 307.622 145.451C306.697 143.574 307.461 141.304 309.327 140.365L309.326 140.364C307.445 141.271 305.18 140.493 304.255 138.615L304.241 138.586L304.24 138.587C304.245 138.596 304.25 138.606 304.254 138.616C305.184 140.504 304.407 142.788 302.52 143.717C302.51 143.722 302.501 143.727 302.491 143.731L302.491 143.732Z" fill="white" fill-opacity="0.3"/>
<path fill-rule="evenodd" clip-rule="evenodd" d="M21.9651 72.78C21.9603 72.7824 21.9555 72.7847 21.9506 72.787L21.9507 72.7872L21.9651 72.78ZM23.7002 67.6412C23.7052 67.6512 23.7101 67.6612 23.7151 67.6712C24.6417 69.5527 23.8732 71.8279 21.999 72.7633C23.883 71.8479 26.155 72.6256 27.0816 74.507C27.0962 74.5368 27.1105 74.5666 27.1243 74.5965L27.127 74.5952C27.1116 74.5659 27.0966 74.5364 27.0819 74.5065C26.1571 72.6289 26.9206 70.3592 28.7865 69.4202L28.7864 69.4201C26.9047 70.3266 24.6402 69.5483 23.7155 67.6707L23.701 67.6408L23.7002 67.6412Z" fill="white" fill-opacity="0.3"/>
<path fill-rule="evenodd" clip-rule="evenodd" d="M57.5495 158.186C57.547 158.187 57.5445 158.188 57.542 158.189L57.542 158.189L57.5495 158.186ZM59.2914 153.044C59.2964 153.054 59.3014 153.064 59.3064 153.074C60.2321 154.953 59.466 157.226 57.5956 158.163C59.4786 157.252 61.7471 158.03 62.6729 159.909C62.6875 159.939 62.7017 159.969 62.7155 159.999L62.7183 159.998C62.703 159.968 62.688 159.939 62.6733 159.909C61.7486 158.031 62.512 155.762 64.3778 154.823L64.3775 154.822C62.4958 155.728 60.2315 154.95 59.3068 153.072L59.2925 153.043L59.2914 153.044Z" fill="white"/>
<path d="M332.708 209.656C331.966 174.073 303.452 109.958 195.332 138.161C60.1814 173.416 39.9593 130.738 22.0523 76.3094C4.14525 21.8808 -23.1373 2.32249 -84.9754 6.54909" stroke="url(#paint0_linear_6418_3384)" stroke-opacity="0.6"/>
<path d="M332.828 222.192C332.086 186.609 303.571 122.494 195.451 150.697C60.3005 185.952 40.0784 143.274 22.1714 88.8455C4.26439 34.417 -23.0182 14.8586 -84.8563 19.0852" stroke="url(#paint1_linear_6418_3384)" stroke-opacity="0.6"/>
<path d="M332.935 233.515C332.193 197.932 303.679 133.817 195.558 162.02C60.408 197.275 40.1858 154.597 22.2788 100.168C4.37182 45.74 -22.9107 26.1816 -84.7489 30.4082" stroke="url(#paint2_linear_6418_3384)" stroke-opacity="0.6"/>
<path d="M333.035 244.029C332.293 208.446 303.778 144.331 195.658 172.535C60.5076 207.789 40.2855 165.111 22.3784 110.683C4.47143 56.2544 -22.8111 36.696 -84.6492 40.9226" stroke="url(#paint3_linear_6418_3384)" stroke-opacity="0.6"/>
<path d="M333.142 255.353C332.4 219.769 303.886 155.654 195.765 183.858C60.615 219.113 40.3929 176.435 22.4859 122.006C4.57885 67.5776 -22.7037 48.0193 -84.5418 52.2459" stroke="url(#paint4_linear_6418_3384)" stroke-opacity="0.6"/>
<path d="M333.242 265.867C332.5 230.284 303.986 166.169 195.866 194.372C60.7151 229.627 40.493 186.949 22.586 132.52C4.67895 78.0918 -22.6036 58.5334 -84.4417 62.76" stroke="url(#paint5_linear_6418_3384)" stroke-opacity="0.6"/>
<path d="M333.35 277.19C332.608 241.607 304.093 177.492 195.973 205.695C60.8225 240.95 40.6004 198.272 22.6934 143.844C4.78637 89.415 -22.4962 69.8567 -84.3343 74.0833" stroke="url(#paint6_linear_6418_3384)" stroke-opacity="0.6"/>
<path d="M333.449 287.704C332.707 252.121 304.193 188.006 196.073 216.21C60.9221 251.464 40.7 208.786 22.793 154.358C4.88598 99.9292 -22.3966 80.3708 -84.2347 84.5974" stroke="url(#paint7_linear_6418_3384)" stroke-opacity="0.6"/>
</g>
<defs>
<linearGradient id="paint0_linear_6418_3384" x1="-85.0444" y1="-0.730044" x2="409.126" y2="164.848" gradientUnits="userSpaceOnUse">
<stop stop-color="white"/>
<stop offset="1" stop-color="white" stop-opacity="0.2"/>
</linearGradient>
<linearGradient id="paint1_linear_6418_3384" x1="-84.9253" y1="11.8061" x2="409.245" y2="177.384" gradientUnits="userSpaceOnUse">
<stop stop-color="white"/>
<stop offset="1" stop-color="white" stop-opacity="0.2"/>
</linearGradient>
<linearGradient id="paint2_linear_6418_3384" x1="-84.8179" y1="23.1291" x2="409.352" y2="188.707" gradientUnits="userSpaceOnUse">
<stop stop-color="white"/>
<stop offset="1" stop-color="white" stop-opacity="0.2"/>
</linearGradient>
<linearGradient id="paint3_linear_6418_3384" x1="-84.7183" y1="33.6435" x2="409.452" y2="199.221" gradientUnits="userSpaceOnUse">
<stop stop-color="white"/>
<stop offset="1" stop-color="white" stop-opacity="0.2"/>
</linearGradient>
<linearGradient id="paint4_linear_6418_3384" x1="-84.6109" y1="44.9667" x2="409.559" y2="210.544" gradientUnits="userSpaceOnUse">
<stop stop-color="white"/>
<stop offset="1" stop-color="white" stop-opacity="0.2"/>
</linearGradient>
<linearGradient id="paint5_linear_6418_3384" x1="-84.5108" y1="55.4809" x2="409.659" y2="221.058" gradientUnits="userSpaceOnUse">
<stop stop-color="white"/>
<stop offset="1" stop-color="white" stop-opacity="0.2"/>
</linearGradient>
<linearGradient id="paint6_linear_6418_3384" x1="-84.4033" y1="66.8041" x2="409.767" y2="232.382" gradientUnits="userSpaceOnUse">
<stop stop-color="white"/>
<stop offset="1" stop-color="white" stop-opacity="0.2"/>
</linearGradient>
<linearGradient id="paint7_linear_6418_3384" x1="-84.3037" y1="77.3183" x2="409.866" y2="242.896" gradientUnits="userSpaceOnUse">
<stop stop-color="white"/>
<stop offset="1" stop-color="white" stop-opacity="0.2"/>
</linearGradient>
</defs>
</svg>
