<svg width="32" height="32" viewBox="0 0 32 32" fill="none" xmlns="http://www.w3.org/2000/svg">
<rect width="32" height="32" rx="8" fill="#1A1A1A"/>
<path d="M18.5003 12C18.5003 12.663 18.2369 13.2989 17.7681 13.7678C17.2992 14.2366 16.6634 14.5 16.0003 14.5C15.3373 14.5 14.7014 14.2366 14.2325 13.7678C13.7637 13.2989 13.5003 12.663 13.5003 12C13.5003 11.337 13.7637 10.7011 14.2325 10.2322C14.7014 9.76339 15.3373 9.5 16.0003 9.5C16.6634 9.5 17.2992 9.76339 17.7681 10.2322C18.2369 10.7011 18.5003 11.337 18.5003 12ZM11.001 21.412C11.0224 20.1002 11.5585 18.8494 12.4938 17.9294C13.429 17.0093 14.6884 16.4936 16.0003 16.4936C17.3123 16.4936 18.5716 17.0093 19.5069 17.9294C20.4421 18.8494 20.9782 20.1002 20.9996 21.412C19.4312 22.1312 17.7257 22.5023 16.0003 22.5C14.2163 22.5 12.523 22.1107 11.001 21.412Z" stroke="white" stroke-width="1.5" stroke-linecap="round" stroke-linejoin="round"/>
</svg>
